<?xml version="1.0" encoding="utf-8"?>
<!-- Generator: Adobe Illustrator 27.5.0, SVG Export Plug-In . SVG Version: 6.00 Build 0)  -->
<svg version="1.1" id="Capa_1" xmlns="http://www.w3.org/2000/svg" xmlns:xlink="http://www.w3.org/1999/xlink" x="0px" y="0px"
	 viewBox="0 0 485.558 387.841" style="enable-background:new 0 0 485.558 387.841;" xml:space="preserve">
<rect style="fill:#EA507E;" width="485.558" height="387.841"/>
<g>
	<path style="fill:#E2CAD6;" d="M342.796,314.513c0,7.57-45.594,13.706-101.836,13.706c-56.244,0-101.837-6.136-101.837-13.706
		s45.593-13.706,101.837-13.706C297.202,300.806,342.796,306.943,342.796,314.513z"/>
	<g>
		<rect x="166.958" y="116.926" style="fill:#314265;" width="6.775" height="29.666"/>
		<rect x="166.958" y="153.132" style="fill:#314265;" width="6.775" height="14.833"/>
		<path style="fill:#314265;" d="M309.755,315.207c0,2.546-2.057,4.606-4.605,4.606H175.102c-2.549,0-4.609-2.06-4.609-4.606V94.23
			c0-2.541,2.061-4.603,4.609-4.603h130.047c2.549,0,4.605,2.063,4.605,4.603V315.207z"/>
		<rect x="170.493" y="102.58" style="fill:#00B2D6;" width="139.262" height="204.286"/>
		<g>
			<g>
				<path style="fill:#00B2D6;" d="M252.573,96.964c0,0.836-0.68,1.514-1.514,1.514h-21.867c-0.838,0-1.514-0.678-1.514-1.514l0,0
					c0-0.831,0.676-1.514,1.514-1.514h21.867C251.893,95.45,252.573,96.134,252.573,96.964L252.573,96.964z"/>
				<path style="fill:#00B2D6;" d="M247.646,312.837c0,0.926-0.753,1.675-1.687,1.675h-11.676c-0.927,0-1.679-0.749-1.679-1.675l0,0
					c0-0.929,0.752-1.681,1.679-1.681h11.676C246.893,311.156,247.646,311.908,247.646,312.837L247.646,312.837z"/>
			</g>
		</g>
		<g>
			<g>
				<g>
					<path style="fill:#F99B2D;" d="M281.21,223.689c-0.697-7.619-2.715-11.339-2.715-11.339
						c-7.617-5.111-28.684-13.823-28.684-13.823h-24.51c0,0-15.01,9.785-23.236,13.443c0,0-2.128,4.189-3.163,11.718H281.21z"/>
					<polygon style="fill:#E78779;" points="249.811,198.527 237.775,210.005 225.302,198.527 225.302,178.013 249.811,178.013 
											"/>
					<path style="fill:#F69583;" d="M263.458,163.875c-2.115,9.128-14.893,26.395-26.41,26.395
						c-9.894,0-25.814-14.363-26.508-23.838c0,0-2.466-16.917-2.816-22.604c-1.047-16.83,14.691-30.52,29.324-30.52l0,0
						c14.645,0,30.944,13.701,29.746,30.52C266.393,149.525,264.743,158.315,263.458,163.875z"/>
					<path style="fill:#071938;" d="M262.333,151.552c0-8.598-7.032-15.816-7.032-15.816c-0.909,0-9.914,9.778-28.849,9.338
						c-10.347-0.241-21.433,16.587-1.725,40.313c0,0-22.3,0.44-20.393-39.286c0.725-15.057,10.267-33.858,32.383-33.858
						c17.92,0,36.092,12.054,36.092,39.931C272.81,168.336,262.333,166.225,262.333,151.552z"/>
					<g>
						<g>
							<g>
								<path style="fill:#F99B2D;" d="M288.064,223.689c-5.423-10.004-12.38-13.187-12.38-13.187s0.029,4.836,0.047,13.187H288.064
									z"/>
							</g>
						</g>
					</g>
					<path style="fill:#F99B2D;" d="M203.239,223.689c0.018-7.808,0.045-12.306,0.045-12.306s-8.25,3.366-14.763,12.306H203.239z"/>
					<path style="fill:#071938;" d="M254.052,221.256c0.715,0.776,1.306,1.594,1.801,2.433h16.087
						c2.397-7.294,2.753-15.441,0.87-20.359c-3.565-9.316-8.334-11.13,0-30.024c8.338-18.895-5.127-42.737-5.127-42.737
						l-12.282,5.247c15.214,43.142-10.014,40.523-10.014,56.964C245.387,202.226,247.382,214.032,254.052,221.256z"/>
				</g>
				<g>
					<g>
						<g>
							<path style="fill:#071938;" d="M237.667,169.668c-0.124,0-0.267-0.008-0.393-0.015c-0.225-0.027-0.404-0.225-0.377-0.451
								c0.02-0.226,0.201-0.417,0.456-0.381c0.835,0.082,1.47-0.159,1.536-0.344c0.037-0.08-0.049-0.366-0.737-0.835
								c-2.083-1.415-2.323-6.343-2.337-6.546c-0.006-0.229,0.171-0.423,0.405-0.436c0.236-0.008,0.419,0.169,0.426,0.394
								c0.058,1.309,0.524,4.924,1.964,5.904c0.92,0.611,1.273,1.219,1.064,1.796C239.439,169.405,238.552,169.668,237.667,169.668z
								"/>
						</g>
					</g>
					<g>
						<g>
							<g>
								<path style="fill:#071938;" d="M223.843,157.831c-0.621,0-1.186,0.253-1.585,0.703c-0.331,0.401-0.503,0.908-0.503,1.455
									c0,1.078,0.725,2.181,2.088,2.181c0.65,0,1.213-0.255,1.604-0.711c0.341-0.392,0.523-0.903,0.523-1.47
									C225.97,158.92,225.245,157.831,223.843,157.831z"/>
							</g>
						</g>
					</g>
					<g>
						<g>
							<g>
								<path style="fill:#071938;" d="M249.945,157.831c0.622,0,1.183,0.253,1.585,0.703c0.33,0.401,0.502,0.908,0.502,1.455
									c0,1.078-0.723,2.181-2.087,2.181c-0.652,0-1.214-0.255-1.604-0.711c-0.342-0.392-0.521-0.903-0.521-1.47
									C247.819,158.92,248.541,157.831,249.945,157.831z"/>
							</g>
						</g>
					</g>
					<g>
						
							<path style="fill:none;stroke:#071938;stroke-width:1.1743;stroke-linecap:round;stroke-linejoin:round;stroke-miterlimit:10;" d="
							M254.93,152.377c0,0-2.339-2.9-7.556-1.138"/>
						
							<path style="fill:none;stroke:#071938;stroke-width:1.1743;stroke-linecap:round;stroke-linejoin:round;stroke-miterlimit:10;" d="
							M219.435,152.377c0,0,2.338-2.9,7.551-1.138"/>
					</g>
					<g>
						<path style="fill:#F37784;" d="M229.185,169.316c0,1.854-2.291,3.352-5.129,3.352c-2.832,0-5.128-1.498-5.128-3.352
							c0-1.849,2.296-3.348,5.128-3.348C226.893,165.968,229.185,167.467,229.185,169.316z"/>
						<path style="fill:#F37784;" d="M254.856,170.022c0,1.85-2.297,3.346-5.131,3.346c-2.832,0-5.127-1.496-5.127-3.346
							c0-1.856,2.295-3.355,5.127-3.355C252.56,166.667,254.856,168.166,254.856,170.022z"/>
					</g>
					<path style="fill:#FFFFFF;" d="M230.36,175.785c0.117,3.635,3.387,6.559,7.415,6.559c4.03,0,7.304-2.924,7.413-6.559H230.36z"
						/>
				</g>
			</g>
			<g>
				
					<rect x="193.313" y="121.686" style="fill:none;stroke:#FFFFFF;stroke-width:1.2859;stroke-miterlimit:10;" width="89.961" height="89.964"/>
				
					<rect x="206.042" y="134.415" style="fill:none;stroke:#FFFFFF;stroke-width:1.2859;stroke-miterlimit:10;" width="64.504" height="64.505"/>
			</g>
			<g>
				<path style="fill:#FFFFFF;" d="M219.466,146.88c0,1.213-0.982,2.197-2.195,2.197c-1.214,0-2.198-0.983-2.198-2.197
					s0.984-2.196,2.198-2.196C218.483,144.684,219.466,145.667,219.466,146.88z"/>
				<path style="fill:#FFFFFF;" d="M240.96,160.849c0,1.213-0.981,2.197-2.196,2.197c-1.214,0-2.196-0.983-2.196-2.197
					c0-1.213,0.982-2.197,2.196-2.197C239.979,158.652,240.96,159.636,240.96,160.849z"/>
				<path style="fill:#FFFFFF;" d="M256.558,149.077c0,1.213-0.982,2.197-2.194,2.197c-1.214,0-2.198-0.983-2.198-2.197
					c0-1.213,0.984-2.197,2.198-2.197C255.575,146.88,256.558,147.864,256.558,149.077z"/>
				<path style="fill:#FFFFFF;" d="M226.119,180.511c0,1.213-0.986,2.197-2.198,2.197c-1.215,0-2.197-0.983-2.197-2.197
					c0-1.213,0.982-2.196,2.197-2.196C225.133,178.315,226.119,179.298,226.119,180.511z"/>
				<path style="fill:#FFFFFF;" d="M255.064,183.976c0,1.213-0.984,2.196-2.196,2.196c-1.215,0-2.197-0.983-2.197-2.196
					c0-1.213,0.982-2.196,2.197-2.196C254.08,181.779,255.064,182.763,255.064,183.976z"/>
				<polyline style="fill:none;stroke:#FFFFFF;stroke-width:0.6759;stroke-miterlimit:10;" points="223.921,180.511 
					238.764,160.849 217.27,146.88 				"/>
				
					<line style="fill:none;stroke:#FFFFFF;stroke-width:0.6759;stroke-miterlimit:10;" x1="239.776" y1="162.201" x2="253.435" y2="183.976"/>
				
					<line style="fill:none;stroke:#FFFFFF;stroke-width:0.6759;stroke-miterlimit:10;" x1="253.435" y1="182.865" x2="255.064" y2="149.077"/>
				<polyline style="fill:none;stroke:#FFFFFF;stroke-width:0.6759;stroke-miterlimit:10;" points="223.241,180.511 216.595,146.88 
					254.363,148.57 240.085,160.286 				"/>
				
					<line style="fill:none;stroke:#FFFFFF;stroke-width:0.6759;stroke-miterlimit:10;" x1="224.608" y1="181.779" x2="251.931" y2="183.976"/>
			</g>
		</g>
		<g>
			<path style="fill:#314265;" d="M266.393,263.587c0,1.099-0.89,1.99-1.99,1.99h-52.221c-1.098,0-1.99-0.892-1.99-1.99v-20.391
				c0-1.099,0.893-1.989,1.99-1.989h52.221c1.101,0,1.99,0.891,1.99,1.989V263.587z"/>
			<g>
				<g>
					<path style="fill:#FFFFFF;" d="M224.075,250.503c-0.239,0-0.419-0.068-0.538-0.204c-0.119-0.136-0.179-0.311-0.179-0.525
						v-3.312c0-0.223-0.061-0.402-0.18-0.538c-0.119-0.136-0.299-0.204-0.537-0.204c-0.247,0-0.429,0.068-0.544,0.204
						c-0.115,0.136-0.173,0.315-0.173,0.538c0,0.75,0.043,1.425,0.13,2.027c0.086,0.602,0.203,1.158,0.352,1.668
						c0.148,0.511,0.315,0.993,0.501,1.446c0.186,0.454,0.372,0.904,0.563,1.354c0.189,0.449,0.377,0.908,0.563,1.378
						c0.185,0.47,0.352,0.98,0.5,1.533c0.148,0.552,0.266,1.158,0.353,1.816c0.086,0.66,0.13,1.401,0.13,2.225
						c0,0.33-0.056,0.625-0.167,0.884c-0.111,0.26-0.272,0.482-0.482,0.668c-0.21,0.185-0.461,0.328-0.754,0.426
						c-0.292,0.099-0.616,0.148-0.97,0.148c-0.75,0-1.333-0.19-1.749-0.568c-0.416-0.379-0.624-0.898-0.624-1.558v-3.782
						c0-0.074,0.021-0.136,0.062-0.185c0.041-0.05,0.104-0.074,0.186-0.074h0.692c0.238,0,0.418,0.068,0.537,0.204
						c0.119,0.136,0.18,0.311,0.18,0.525v3.312c0,0.223,0.06,0.402,0.179,0.538c0.119,0.136,0.299,0.204,0.538,0.204
						c0.247,0,0.428-0.068,0.544-0.204c0.115-0.136,0.173-0.315,0.173-0.538c0-1.054-0.076-1.977-0.229-2.768
						c-0.153-0.791-0.345-1.51-0.575-2.157c-0.23-0.646-0.478-1.261-0.741-1.841c-0.264-0.581-0.511-1.193-0.742-1.836
						c-0.23-0.643-0.422-1.351-0.574-2.126c-0.152-0.774-0.229-1.681-0.229-2.719c0-0.33,0.056-0.624,0.167-0.884
						c0.111-0.259,0.271-0.482,0.482-0.667c0.21-0.185,0.46-0.327,0.748-0.426c0.288-0.099,0.613-0.148,0.977-0.148
						c0.749,0,1.332,0.19,1.749,0.569c0.415,0.379,0.624,0.898,0.624,1.557v3.782c0,0.074-0.021,0.136-0.063,0.186
						s-0.103,0.074-0.185,0.074H224.075z"/>
					<path style="fill:#FFFFFF;" d="M234.283,255.002c0-0.214,0.058-0.389,0.173-0.525c0.115-0.136,0.288-0.208,0.519-0.216h0.718
						c0.082,0,0.144,0.025,0.185,0.074c0.041,0.049,0.063,0.111,0.063,0.186v5.388c0,0.66-0.209,1.179-0.624,1.558
						c-0.417,0.379-1,0.568-1.749,0.568c-0.363,0-0.689-0.049-0.977-0.148c-0.288-0.099-0.538-0.241-0.748-0.426
						c-0.21-0.186-0.37-0.408-0.481-0.668c-0.111-0.259-0.167-0.554-0.167-0.884v-13.446c0-0.659,0.208-1.178,0.624-1.557
						s0.999-0.569,1.749-0.569c0.354,0,0.678,0.05,0.97,0.148c0.293,0.099,0.544,0.241,0.754,0.426
						c0.21,0.186,0.371,0.408,0.482,0.667c0.111,0.26,0.167,0.554,0.167,0.884v5.537c0,0.074-0.021,0.136-0.063,0.186
						c-0.041,0.049-0.103,0.074-0.185,0.074H235c-0.239,0-0.419-0.068-0.538-0.204c-0.119-0.136-0.179-0.311-0.179-0.525v-5.067
						c0-0.223-0.058-0.402-0.173-0.538c-0.116-0.136-0.297-0.204-0.544-0.204c-0.239,0-0.419,0.068-0.538,0.204
						c-0.119,0.136-0.179,0.315-0.179,0.538v13.446c0,0.223,0.058,0.402,0.173,0.538c0.115,0.136,0.297,0.204,0.544,0.204
						c0.238,0,0.418-0.068,0.537-0.204c0.119-0.136,0.18-0.315,0.18-0.538V255.002z"/>
					<path style="fill:#FFFFFF;" d="M244.948,244.534c0.074,0,0.132,0.025,0.173,0.074c0.041,0.05,0.066,0.107,0.074,0.173
						l1.483,16.746c0.008,0.074-0.015,0.145-0.068,0.21c-0.054,0.066-0.138,0.099-0.253,0.099h-0.605
						c-0.206,0-0.377-0.06-0.514-0.179c-0.136-0.119-0.212-0.266-0.229-0.439l-0.136-2.36h-1.248l-0.136,2.36
						c-0.017,0.173-0.093,0.32-0.229,0.439c-0.137,0.12-0.308,0.179-0.514,0.179h-0.605c-0.115,0-0.199-0.033-0.253-0.099
						c-0.054-0.066-0.076-0.136-0.068-0.21l1.483-16.746c0.008-0.066,0.032-0.124,0.074-0.173c0.041-0.049,0.099-0.074,0.173-0.074
						H244.948z M243.7,257.474h1.087l-0.543-9.245L243.7,257.474z"/>
					<path style="fill:#FFFFFF;" d="M257.06,244.534c0.082,0,0.144,0.025,0.185,0.074c0.041,0.05,0.063,0.111,0.063,0.186v16.783
						c0,0.074-0.021,0.136-0.063,0.186c-0.041,0.049-0.102,0.074-0.185,0.074h-0.692c-0.215,0-0.379-0.051-0.494-0.154
						c-0.116-0.103-0.185-0.241-0.211-0.414c0-0.099-0.03-0.33-0.092-0.692c-0.063-0.362-0.141-0.801-0.235-1.316
						c-0.095-0.515-0.2-1.082-0.315-1.7c-0.115-0.618-0.23-1.238-0.346-1.86c-0.115-0.622-0.225-1.217-0.327-1.786
						c-0.104-0.569-0.188-1.059-0.254-1.471l0.124,8.664c0.008,0.214-0.05,0.389-0.173,0.525c-0.124,0.136-0.306,0.204-0.544,0.204
						h-0.692c-0.082,0-0.145-0.025-0.186-0.074c-0.041-0.049-0.062-0.111-0.062-0.186v-16.783c0-0.074,0.021-0.136,0.062-0.186
						c0.041-0.049,0.104-0.074,0.186-0.074h0.692c0.206,0,0.372,0.056,0.5,0.167c0.128,0.111,0.2,0.258,0.217,0.439
						c0.017,0.132,0.054,0.401,0.111,0.81c0.058,0.408,0.131,0.894,0.222,1.458c0.091,0.564,0.189,1.179,0.297,1.842
						c0.107,0.663,0.217,1.314,0.328,1.953c0.11,0.639,0.218,1.234,0.321,1.786c0.102,0.552,0.195,1.005,0.277,1.359l-0.123-9.183
						c0-0.189,0.065-0.342,0.197-0.457c0.132-0.115,0.305-0.173,0.52-0.173H257.06z"/>
				</g>
			</g>
		</g>
		<g style="opacity:0.3;">
			<polygon style="fill:#ABDFF9;" points="309.635,102.58 297.708,102.58 202.892,306.866 231.717,306.866 309.635,133.167 			"/>
			<path style="fill:#ABDFF9;" d="M289.898,102.58H264.99c0,0-94.386,193.824-94.546,193.826v10.46h23.29L289.898,102.58z"/>
		</g>
	</g>
	<g>
		<g>
			<g>
				<g>
					
						<line style="fill:none;stroke:#FFFFFF;stroke-width:1.4095;stroke-linecap:round;stroke-linejoin:round;" x1="357.859" y1="116.829" x2="356.45" y2="116.829"/>
					
						<line style="fill:none;stroke:#FFFFFF;stroke-width:1.4095;stroke-linecap:round;stroke-linejoin:round;stroke-dasharray:2.9127,3.8835;" x1="352.566" y1="116.829" x2="313.731" y2="116.829"/>
					<polyline style="fill:none;stroke:#FFFFFF;stroke-width:1.4095;stroke-linecap:round;stroke-linejoin:round;" points="
						311.79,116.829 310.38,116.829 309.497,117.927 					"/>
					
						<line style="fill:none;stroke:#FFFFFF;stroke-width:1.4095;stroke-linecap:round;stroke-linejoin:round;stroke-dasharray:3.2118,4.2824;" x1="306.811" y1="121.264" x2="303.457" y2="125.435"/>
					
						<line style="fill:none;stroke:#FFFFFF;stroke-width:1.4095;stroke-linecap:round;stroke-linejoin:round;" x1="302.114" y1="127.103" x2="301.231" y2="128.201"/>
				</g>
			</g>
			<path style="fill:#FFFFFF;" d="M361.353,116.829c0,1.654-1.338,2.995-2.994,2.995c-1.654,0-2.994-1.341-2.994-2.995
				s1.34-2.996,2.994-2.996C360.015,113.833,361.353,115.175,361.353,116.829z"/>
			<path style="fill:#FFFFFF;" d="M304.228,128.202c0,1.654-1.342,2.995-2.996,2.995c-1.655,0-2.996-1.341-2.996-2.995
				c0-1.654,1.341-2.996,2.996-2.996C302.886,125.206,304.228,126.548,304.228,128.202z"/>
		</g>
		<g>
			<rect x="368.085" y="90.214" style="fill:#FFFFFF;" width="77.129" height="50.265"/>
			<g>
				<g>
					<path style="fill:#82B1DF;" d="M384.677,104.601c0,0.195-6.975-6.344-6.975-6.344c1.725-1.894,4.212-3.083,6.975-3.083V104.601
						z"/>
					<path style="fill:#F99B2D;" d="M394.103,104.601c0,0-4.22,0-9.427,0v-9.428C389.884,95.173,394.103,99.395,394.103,104.601z"/>
					<path style="fill:#128C96;" d="M375.248,104.609c0,0,4.222,0,9.429,0v9.429C379.47,114.038,375.248,109.816,375.248,104.609z"
						/>
					<path style="fill:#071938;" d="M384.677,104.601h-9.429c0-2.443,0.931-4.669,2.453-6.344L384.677,104.601z"/>
					<g>
						<path style="fill:#F495BF;" d="M384.677,104.611c0-0.195,6.974,6.344,6.974,6.344c-1.726,1.895-4.21,3.085-6.974,3.085
							V104.611z"/>
						<path style="fill:#EA507E;" d="M384.677,104.611h9.427c0,2.443-0.929,4.67-2.453,6.344L384.677,104.611z"/>
					</g>
				</g>
				<g>
					<path style="fill:#82B1DF;" d="M384.679,126.08c0,0.195-6.977-6.344-6.977-6.344c1.727-1.894,4.213-3.084,6.977-3.084V126.08z"
						/>
					<path style="fill:#F99B2D;" d="M394.104,126.08c0,0-4.221,0-9.426,0v-9.428C389.884,116.652,394.104,120.874,394.104,126.08z"
						/>
					<path style="fill:#128C96;" d="M375.25,126.089c0,0,4.222,0,9.429,0v9.429C379.472,135.518,375.25,131.296,375.25,126.089z"/>
					<path style="fill:#071938;" d="M384.679,126.08h-9.429c0-2.443,0.931-4.67,2.452-6.344L384.679,126.08z"/>
					<g>
						<path style="fill:#F495BF;" d="M384.679,126.091c0-0.195,6.972,6.344,6.972,6.344c-1.724,1.895-4.21,3.085-6.972,3.085
							V126.091z"/>
						<path style="fill:#EA507E;" d="M384.679,126.091h9.426c0,2.443-0.93,4.67-2.454,6.344L384.679,126.091z"/>
					</g>
				</g>
				<g>
					<rect x="400.005" y="97.8" style="fill:#071938;" width="38.044" height="1.903"/>
					<rect x="400.005" y="103.654" style="fill:#071938;" width="38.044" height="1.903"/>
					<rect x="400.005" y="109.51" style="fill:#071938;" width="38.044" height="1.903"/>
				</g>
				<g>
					<rect x="399.446" y="119.279" style="fill:#071938;" width="38.043" height="1.903"/>
					<rect x="399.446" y="125.134" style="fill:#071938;" width="38.043" height="1.903"/>
					<rect x="399.446" y="130.989" style="fill:#071938;" width="38.043" height="1.903"/>
				</g>
			</g>
		</g>
	</g>
	<g>
		<g>
			<g>
				<g>
					
						<line style="fill:none;stroke:#FFFFFF;stroke-width:1.4095;stroke-linecap:round;stroke-linejoin:round;" x1="357.859" y1="242.144" x2="356.45" y2="242.144"/>
					
						<line style="fill:none;stroke:#FFFFFF;stroke-width:1.4095;stroke-linecap:round;stroke-linejoin:round;stroke-dasharray:2.9127,3.8835;" x1="352.566" y1="242.144" x2="313.731" y2="242.144"/>
					<polyline style="fill:none;stroke:#FFFFFF;stroke-width:1.4095;stroke-linecap:round;stroke-linejoin:round;" points="
						311.79,242.144 310.38,242.144 309.497,241.045 					"/>
					
						<line style="fill:none;stroke:#FFFFFF;stroke-width:1.4095;stroke-linecap:round;stroke-linejoin:round;stroke-dasharray:3.2118,4.2824;" x1="306.811" y1="237.708" x2="303.457" y2="233.538"/>
					
						<line style="fill:none;stroke:#FFFFFF;stroke-width:1.4095;stroke-linecap:round;stroke-linejoin:round;" x1="302.114" y1="231.869" x2="301.231" y2="230.771"/>
				</g>
			</g>
			<path style="fill:#FFFFFF;" d="M361.353,242.144c0-1.654-1.338-2.995-2.994-2.995c-1.654,0-2.994,1.34-2.994,2.995
				c0,1.654,1.34,2.996,2.994,2.996C360.015,245.139,361.353,243.797,361.353,242.144z"/>
			<path style="fill:#FFFFFF;" d="M304.228,230.77c0-1.654-1.34-2.995-2.994-2.995c-1.656,0-2.997,1.341-2.997,2.995
				c0,1.654,1.341,2.996,2.997,2.996C302.888,233.766,304.228,232.424,304.228,230.77z"/>
		</g>
		<g>
			<rect x="368.085" y="213.4" style="fill:#FFFFFF;" width="77.129" height="50.265"/>
			<g>
				<path style="fill:#82B1DF;" d="M384.678,229.709c0,0.195-6.976-6.344-6.976-6.344c1.725-1.894,4.211-3.084,6.976-3.084V229.709z
					"/>
				<path style="fill:#F99B2D;" d="M394.104,229.709c0,0-4.221,0-9.427,0v-9.428C389.884,220.281,394.104,224.503,394.104,229.709z"
					/>
				<path style="fill:#128C96;" d="M375.249,229.718c0,0,4.221,0,9.429,0v9.429C379.47,239.147,375.249,234.925,375.249,229.718z"/>
				<path style="fill:#071938;" d="M384.678,229.709h-9.429c0-2.442,0.93-4.669,2.453-6.344L384.678,229.709z"/>
				<g>
					<path style="fill:#F495BF;" d="M384.678,229.72c0-0.195,6.973,6.344,6.973,6.344c-1.724,1.895-4.21,3.085-6.973,3.085V229.72z"
						/>
					<path style="fill:#EA507E;" d="M384.678,229.72h9.427c0,2.443-0.93,4.669-2.454,6.344L384.678,229.72z"/>
				</g>
			</g>
			<g>
				<rect x="400.005" y="222.909" style="fill:#071938;" width="38.045" height="1.903"/>
				<rect x="400.005" y="228.763" style="fill:#071938;" width="38.045" height="1.903"/>
				<rect x="400.005" y="234.618" style="fill:#071938;" width="38.045" height="1.903"/>
			</g>
			<g>
				<rect x="379.261" y="245.485" style="fill:#82B1DF;" width="10.996" height="10.996"/>
				<rect x="393.854" y="245.485" style="fill:#F99B2D;" width="10.996" height="10.996"/>
				<rect x="408.448" y="245.485" style="fill:#128C96;" width="10.996" height="10.996"/>
				<rect x="423.042" y="245.485" style="fill:#EA507E;" width="10.996" height="10.996"/>
			</g>
		</g>
	</g>
	<g>
		<g>
			<g>
				<g>
					
						<line style="fill:none;stroke:#FFFFFF;stroke-width:1.4095;stroke-linecap:round;stroke-linejoin:round;" x1="131.274" y1="116.829" x2="132.685" y2="116.829"/>
					
						<line style="fill:none;stroke:#FFFFFF;stroke-width:1.4095;stroke-linecap:round;stroke-linejoin:round;stroke-dasharray:2.9127,3.8836;" x1="136.567" y1="116.829" x2="175.403" y2="116.829"/>
					<polyline style="fill:none;stroke:#FFFFFF;stroke-width:1.4095;stroke-linecap:round;stroke-linejoin:round;" points="
						177.345,116.829 178.755,116.829 179.638,117.927 					"/>
					
						<line style="fill:none;stroke:#FFFFFF;stroke-width:1.4095;stroke-linecap:round;stroke-linejoin:round;stroke-dasharray:3.2115,4.282;" x1="182.321" y1="121.264" x2="185.677" y2="125.435"/>
					
						<line style="fill:none;stroke:#FFFFFF;stroke-width:1.4095;stroke-linecap:round;stroke-linejoin:round;" x1="187.018" y1="127.103" x2="187.901" y2="128.201"/>
				</g>
			</g>
			<path style="fill:#FFFFFF;" d="M127.78,116.829c0,1.654,1.34,2.995,2.995,2.995c1.653,0,2.995-1.341,2.995-2.995
				s-1.342-2.996-2.995-2.996C129.12,113.833,127.78,115.175,127.78,116.829z"/>
			<path style="fill:#FFFFFF;" d="M184.907,128.202c0,1.654,1.34,2.995,2.994,2.995c1.656,0,2.996-1.341,2.996-2.995
				c0-1.654-1.34-2.996-2.996-2.996C186.247,125.206,184.907,126.548,184.907,128.202z"/>
		</g>
		<g>
			<rect x="43.92" y="90.214" style="fill:#FFFFFF;" width="77.129" height="50.265"/>
			<g>
				<path style="fill:#82B1DF;" d="M62.19,124.773c0,0.195,6.977-6.344,6.977-6.344c-1.726-1.894-4.212-3.084-6.977-3.084V124.773z"
					/>
				<path style="fill:#F99B2D;" d="M52.765,124.773c0,0,4.219,0,9.426,0v-9.427C56.983,115.346,52.765,119.568,52.765,124.773z"/>
				<path style="fill:#128C96;" d="M71.62,124.783c0,0-4.222,0-9.43,0v9.428C67.398,134.211,71.62,129.99,71.62,124.783z"/>
				<path style="fill:#071938;" d="M62.19,124.773h9.43c0-2.442-0.931-4.669-2.453-6.344L62.19,124.773z"/>
				<g>
					<path style="fill:#F495BF;" d="M62.19,124.785c0-0.195-6.974,6.344-6.974,6.344c1.726,1.895,4.21,3.084,6.974,3.084V124.785z"
						/>
					<path style="fill:#EA507E;" d="M62.19,124.785h-9.426c0,2.443,0.928,4.669,2.452,6.344L62.19,124.785z"/>
				</g>
			</g>
			<g>
				<rect x="51.086" y="96.848" style="fill:#071938;" width="62.692" height="1.903"/>
				<rect x="51.086" y="102.702" style="fill:#071938;" width="62.692" height="1.903"/>
				<rect x="51.086" y="108.558" style="fill:#071938;" width="62.692" height="1.903"/>
			</g>
			<rect x="76.607" y="120.788" style="fill:#82B1DF;" width="35.944" height="7.413"/>
			<rect x="93.81" y="120.788" style="fill:#071938;" width="18.742" height="7.413"/>
		</g>
	</g>
	<g>
		<g>
			<g>
				<g>
					
						<line style="fill:none;stroke:#FFFFFF;stroke-width:1.4095;stroke-linecap:round;stroke-linejoin:round;" x1="131.274" y1="242.144" x2="132.685" y2="242.144"/>
					
						<line style="fill:none;stroke:#FFFFFF;stroke-width:1.4095;stroke-linecap:round;stroke-linejoin:round;stroke-dasharray:2.9127,3.8836;" x1="136.567" y1="242.144" x2="175.403" y2="242.144"/>
					<polyline style="fill:none;stroke:#FFFFFF;stroke-width:1.4095;stroke-linecap:round;stroke-linejoin:round;" points="
						177.345,242.144 178.755,242.144 179.638,241.045 					"/>
					
						<line style="fill:none;stroke:#FFFFFF;stroke-width:1.4095;stroke-linecap:round;stroke-linejoin:round;stroke-dasharray:3.2115,4.282;" x1="182.321" y1="237.708" x2="185.677" y2="233.538"/>
					
						<line style="fill:none;stroke:#FFFFFF;stroke-width:1.4095;stroke-linecap:round;stroke-linejoin:round;" x1="187.018" y1="231.869" x2="187.901" y2="230.771"/>
				</g>
			</g>
			<path style="fill:#FFFFFF;" d="M127.78,242.144c0-1.654,1.34-2.995,2.995-2.995c1.653,0,2.995,1.34,2.995,2.995
				c0,1.654-1.342,2.996-2.995,2.996C129.12,245.139,127.78,243.797,127.78,242.144z"/>
			<path style="fill:#FFFFFF;" d="M184.905,230.77c0-1.654,1.342-2.995,2.995-2.995c1.656,0,2.997,1.341,2.997,2.995
				c0,1.654-1.341,2.996-2.997,2.996C186.247,233.766,184.905,232.424,184.905,230.77z"/>
		</g>
		<g>
			<rect x="43.92" y="213.4" style="fill:#FFFFFF;" width="77.129" height="50.265"/>
			<g>
				<path style="fill:#82B1DF;" d="M65.265,229.087c0,0.195,6.977-6.344,6.977-6.344c-1.726-1.894-4.212-3.084-6.977-3.084V229.087z
					"/>
				<path style="fill:#F99B2D;" d="M55.839,229.087c0,0,4.221,0,9.426,0v-9.428C60.06,219.66,55.839,223.882,55.839,229.087z"/>
				<path style="fill:#128C96;" d="M74.694,229.097c0,0-4.222,0-9.43,0v9.429C70.473,238.525,74.694,234.303,74.694,229.097z"/>
				<path style="fill:#071938;" d="M65.265,229.087h9.43c0-2.442-0.931-4.669-2.453-6.344L65.265,229.087z"/>
				<g>
					<path style="fill:#F495BF;" d="M65.265,229.099c0-0.195-6.973,6.344-6.973,6.344c1.725,1.895,4.21,3.085,6.973,3.085V229.099z"
						/>
					<path style="fill:#EA507E;" d="M65.265,229.099h-9.426c0,2.443,0.929,4.669,2.453,6.344L65.265,229.099z"/>
				</g>
			</g>
			<g>
				<path style="fill:#82B1DF;" d="M98.868,229.087c0,0.195,6.977-6.344,6.977-6.344c-1.725-1.894-4.212-3.084-6.977-3.084V229.087z
					"/>
				<path style="fill:#F99B2D;" d="M89.442,229.087c0,0,4.221,0,9.426,0v-9.428C93.663,219.66,89.442,223.882,89.442,229.087z"/>
				<path style="fill:#128C96;" d="M108.298,229.097c0,0-4.222,0-9.43,0v9.429C104.076,238.525,108.298,234.303,108.298,229.097z"/>
				<path style="fill:#071938;" d="M98.868,229.087h9.43c0-2.442-0.931-4.669-2.453-6.344L98.868,229.087z"/>
				<g>
					<path style="fill:#F495BF;" d="M98.868,229.099c0-0.195-6.973,6.344-6.973,6.344c1.725,1.895,4.211,3.085,6.973,3.085V229.099z
						"/>
					<path style="fill:#EA507E;" d="M98.868,229.099h-9.426c0,2.443,0.93,4.669,2.453,6.344L98.868,229.099z"/>
				</g>
			</g>
			<g>
				<rect x="52.164" y="245.98" style="fill:#82B1DF;" width="62.801" height="7.983"/>
				<rect x="71.087" y="245.98" style="fill:#071938;" width="43.878" height="7.983"/>
			</g>
		</g>
	</g>
</g>
</svg>
