<?xml version="1.0" encoding="utf-8"?>
<!-- Generator: Adobe Illustrator 27.5.0, SVG Export Plug-In . SVG Version: 6.00 Build 0)  -->
<svg version="1.1" xmlns="http://www.w3.org/2000/svg" xmlns:xlink="http://www.w3.org/1999/xlink" x="0px" y="0px"
	 viewBox="0 0 500 500" style="enable-background:new 0 0 500 500;" xml:space="preserve">
<g id="Floor">
	<ellipse style="fill:#F5F5F5;" cx="250" cy="361.969" rx="214.179" ry="123.656"/>
</g>
<g id="Shadows">
	<path style="fill:#E0E0E0;" d="M412.602,391.412l-150.645-86.975c-5.47-3.158-12.209-3.158-17.679,0l-53.252,30.745
		c-3.846,2.221-3.846,7.772,0,9.992l150.645,86.975c5.47,3.158,12.209,3.158,17.679,0l53.252-30.745
		C416.448,399.183,416.448,393.632,412.602,391.412z"/>
	<ellipse style="fill:#E0E0E0;" cx="126.33" cy="391.729" rx="46.947" ry="27.105"/>
</g>
<g id="Plant">
	<g>
		<g>
			<path style="fill:#BA68C8;" d="M85.346,360.829l-9.131,5.304c0,0,4.607-14.707,2.05-29.503c-0.965-5.585-2.997-8.359-3.714-9.849
				c-0.717-1.49-6.222-10.719-1.376-14.973c4.846-4.254,16.217,4.208,15.707,26.995C88.622,350.498,85.346,360.829,85.346,360.829z"
				/>
			<path style="opacity:0.3;" d="M85.346,360.829l-9.131,5.304c0,0,4.607-14.707,2.05-29.503c-0.965-5.585-2.997-8.359-3.714-9.849
				c-0.717-1.49-6.222-10.719-1.376-14.973c4.846-4.254,16.217,4.208,15.707,26.995C88.622,350.498,85.346,360.829,85.346,360.829z"
				/>
			<path style="fill:#FFFFFF;" d="M81.102,363.718c-0.049,0-0.098-0.009-0.146-0.026c-0.22-0.08-0.332-0.323-0.252-0.543
				c0.034-0.094,3.435-9.551,3.255-24.762c-0.179-15.108-8.067-23.136-8.146-23.216c-0.166-0.165-0.167-0.433-0.002-0.598
				c0.165-0.165,0.433-0.167,0.598-0.002c0.082,0.082,8.214,8.333,8.396,23.806c0.182,15.379-3.271,24.968-3.306,25.063
				C81.436,363.611,81.273,363.718,81.102,363.718z"/>
		</g>
		<g>
			<path style="fill:#BA68C8;" d="M78.264,364.973l-15.084,8.871c0,0-6.907-1.018-6.384-7.519c0.523-6.502,3.329-8.033-0.165-10.89
				c-3.494-2.857-4.396-3.046-4.229-5.846c0.167-2.8,2.051-4.021,2.937-5.131c0.886-1.11,3.357-3.437,1.618-6.814
				c-1.738-3.377-4.093-6.639-0.596-8.187c2.088-0.924,5.599,0.234,7.926,2.704c2.327,2.471,4.247,4.247,6.452,4.82
				c2.205,0.573,6.802,0.619,6.647,4.418c-0.155,3.799-1.141,5.111-0.22,6.798C78.903,351.375,86.318,353.086,78.264,364.973z"/>
			<path style="fill:#FFFFFF;" d="M72.123,369.008c-0.012,0-0.023,0-0.035-0.001c-0.233-0.018-0.406-0.223-0.388-0.456
				c0.019-0.222,1.621-22.322-13.708-36.811c-0.169-0.161-0.177-0.428-0.017-0.598c0.16-0.169,0.429-0.176,0.599-0.017
				c15.63,14.773,13.988,37.269,13.97,37.494C72.525,368.841,72.341,369.008,72.123,369.008z"/>
			<path style="fill:#FFFFFF;" d="M69.417,349.733c-0.01,0-0.021,0-0.031-0.001c-0.233-0.017-0.408-0.22-0.391-0.453
				c0.467-6.304,4.749-9.453,4.931-9.583c0.189-0.137,0.454-0.092,0.59,0.096c0.137,0.189,0.094,0.454-0.096,0.591
				c-0.041,0.03-4.144,3.064-4.581,8.96C69.822,349.564,69.637,349.733,69.417,349.733z"/>
			<path style="fill:#FFFFFF;" d="M70.531,353.571c-0.115,0-0.231-0.047-0.315-0.139c-0.037-0.041-3.832-4.101-12.455-2.915
				c-0.228,0.032-0.444-0.13-0.477-0.361c-0.032-0.232,0.13-0.445,0.361-0.477c9.085-1.25,13.035,3.005,13.199,3.187
				c0.156,0.173,0.142,0.44-0.031,0.596C70.733,353.535,70.632,353.571,70.531,353.571z"/>
		</g>
	</g>
</g>
<g id="Device">
	<g>
		<path style="fill:#455A64;" d="M366.825,408.934l-121.502-70.149c-8.573-4.949-15.522-18.228-15.522-29.658V48.952
			c0-11.43,6.95-16.684,15.522-11.735l121.502,70.149c8.573,4.95,15.522,18.228,15.522,29.658v260.175
			C382.347,408.63,375.397,413.883,366.825,408.934z"/>
		<path style="fill:#37474F;" d="M380.816,99.211L259.314,29.062c-3.665-2.116-7.032-2.362-9.687-1.062v0l-0.003,0.002
			c-0.326,0.16-0.642,0.344-0.945,0.55l-13.612,7.913c2.735-1.635,6.324-1.518,10.257,0.753l121.502,70.149
			c8.573,4.95,15.522,18.228,15.522,29.658v260.175c0,6.043-1.943,10.358-5.041,12.353l13.434-7.826l-0.002-0.002
			c3.421-1.821,5.6-6.282,5.6-12.681V128.869C396.338,117.439,389.388,104.16,380.816,99.211z"/>
		<path style="fill:#263238;" d="M382.347,137.025v260.175c0,6.043-1.943,10.358-5.041,12.353l13.434-7.826l-0.002-0.002
			c3.421-1.821,5.6-6.282,5.6-12.681V128.869c0-0.007,0-0.014,0-0.02l-13.992,8.124C382.346,136.99,382.347,137.007,382.347,137.025
			z"/>
		<polygon style="fill:#37474F;" points="396.338,149.067 382.347,157.145 382.347,163.453 396.338,155.375 		"/>
		<g>
			<path style="fill:#37474F;" d="M390.208,191.043L390.208,191.043c-1.252,0.723-2.266-0.044-2.266-1.713v-13.569
				c0-1.669,1.014-3.607,2.266-4.33l0,0c1.251-0.723,2.266,0.044,2.266,1.713v13.569C392.474,188.382,391.46,190.32,390.208,191.043
				z"/>
			<path style="fill:#455A64;" d="M387.942,189.33v-13.569c0-1.669,1.014-3.607,2.266-4.33c0.545-0.315,1.038-0.332,1.43-0.131
				l0.003-0.016l-1.692-0.878l-0.003,0.014c-0.396-0.225-0.905-0.215-1.468,0.11c-1.251,0.723-2.266,2.661-2.266,4.33v13.569
				c0,0.901,0.302,1.526,0.77,1.809l-0.003,0.014l1.777,0.926l0.003-0.016C388.264,190.895,387.942,190.259,387.942,189.33z"/>
		</g>
		<g>
			<path style="fill:#37474F;" d="M390.208,223.89L390.208,223.89c-1.252,0.723-2.266-0.044-2.266-1.713v-13.569
				c0-1.669,1.014-3.607,2.266-4.33l0,0c1.251-0.723,2.266,0.044,2.266,1.713v13.569C392.474,221.229,391.46,223.167,390.208,223.89
				z"/>
			<path style="fill:#455A64;" d="M387.942,222.177v-13.569c0-1.669,1.014-3.607,2.266-4.33c0.545-0.315,1.038-0.332,1.43-0.131
				l0.003-0.016l-1.692-0.878l-0.003,0.014c-0.396-0.225-0.905-0.215-1.468,0.11c-1.251,0.723-2.266,2.661-2.266,4.33v13.569
				c0,0.901,0.302,1.526,0.77,1.809l-0.003,0.014l1.777,0.927l0.003-0.016C388.264,223.742,387.942,223.107,387.942,222.177z"/>
		</g>
		<path style="fill:#BA68C8;" d="M362.6,114.683L243.189,45.728c-2.195-1.268-4.94,0.317-4.94,2.852v260.547
			c0,8.7,6.165,19.378,13.699,23.728l116.509,67.267c2.418,1.396,5.44-0.349,5.44-3.141V134.251
			C373.898,127.076,368.815,118.271,362.6,114.683z"/>
		<path style="opacity:0.5;fill:#FFFFFF;" d="M362.6,114.683L243.189,45.728c-2.195-1.268-4.94,0.317-4.94,2.852v260.547
			c0,8.7,6.165,19.378,13.699,23.728l116.509,67.267c2.418,1.396,5.44-0.349,5.44-3.141V134.251
			C373.898,127.076,368.815,118.271,362.6,114.683z"/>
		<polygon style="fill:#455A64;" points="278.895,63.729 280.744,71.521 320.323,94.341 327.157,90.699 		"/>
		<g>
			<path style="fill:#263238;" d="M290.526,71.258c0,1.292-0.907,1.816-2.026,1.17c-1.119-0.646-2.026-2.217-2.026-3.509
				c0-1.292,0.907-1.815,2.026-1.17C289.619,68.395,290.526,69.966,290.526,71.258z"/>
			<path style="fill:#263238;" d="M317.192,87.738c-0.21,0-0.422-0.052-0.617-0.161l-20.216-11.296
				c-0.611-0.341-0.829-1.113-0.488-1.724c0.341-0.612,1.115-0.829,1.724-0.488l20.215,11.296c0.611,0.342,0.83,1.113,0.488,1.724
				C318.067,87.504,317.636,87.738,317.192,87.738z"/>
		</g>
	</g>
</g>
<g id="Screen">
	<g>
		<g>
			<path style="fill:#F5F5F5;" d="M214.268,351.361c26.101,15.57,94.002,56.095,127.614,76.34c4.401,2.651,10.003-0.523,10.003-5.66
				V141.206c0-6.502-3.446-12.516-9.056-15.804L213.658,49.699c-4.402-2.58-9.942,0.595-9.942,5.697v277.38
				C203.716,340.398,207.722,347.456,214.268,351.361z"/>
			<path style="fill:#E0E0E0;" d="M213.763,352.225c20.959,12.503,41.913,25.013,62.86,37.534
				c12.239,7.316,24.476,14.637,36.707,21.966c5.469,3.277,10.936,6.555,16.401,9.837c2.434,1.461,4.867,2.924,7.3,4.387
				c2.227,1.339,4.593,3.272,7.226,3.629c4.629,0.628,8.503-3.036,8.628-7.58c0.014-0.49,0-0.983,0-1.473c0-2.912,0-5.824,0-8.737
				c0-12.189,0-24.378,0-36.567c0-17.708,0-35.415,0-53.123c0-20.021,0-40.042,0-60.063c0-18.936,0-37.871,0-56.807
				c0-14.465,0-28.929,0-43.394c0-6.742,0.025-13.485,0-20.227c-0.026-7.213-3.649-13.574-9.861-17.25
				c-2.949-1.745-5.913-3.465-8.869-5.198c-14.1-8.263-28.199-16.527-42.299-24.79c-16.734-9.807-33.467-19.614-50.201-29.421
				c-9.059-5.309-18.069-10.713-27.181-15.93c-5.452-3.121-11.705,0.567-11.757,6.801c-0.018,2.221,0,4.443,0,6.665
				c0,11.22,0,22.441,0,33.661c0,17.231,0,34.463,0,51.695c0,19.944,0,39.888,0,59.832c0,19.173,0,38.346,0,57.519
				c0,14.928,0,29.857,0,44.785c0,7.349-0.01,14.697,0,22.046C202.727,340.327,206.617,347.833,213.763,352.225
				c1.1,0.676,2.105-1.053,1.009-1.727c-6.779-4.165-10.057-11.185-10.057-18.958c0-2.742,0-5.484,0-8.226
				c0-11.744,0-23.488,0-35.232c0-17.358,0-34.715,0-52.073c0-19.692,0-39.385,0-59.077c0-18.748,0-37.496,0-56.244
				c0-14.561,0-29.121,0-43.682c0-6.993-0.037-13.988,0-20.981c0.01-1.842,0.454-3.61,1.939-4.872
				c2.235-1.9,4.928-1.508,7.244-0.151c3.332,1.953,6.665,3.906,9.997,5.859c14.273,8.365,28.546,16.73,42.819,25.095
				c16.355,9.585,32.71,19.17,49.065,28.755c8.762,5.135,17.549,10.229,26.286,15.405c5.733,3.396,8.807,9.198,8.819,15.794
				c0.004,2.387,0,4.774,0,7.161c0,11.142,0,22.284,0,33.425c0,16.968,0,33.936,0,50.904c0,19.598,0,39.196,0,58.794
				c0,19.031,0,38.063,0,57.095c0,15.269,0,30.538,0,45.806c0,8.322,0,16.643,0,24.964c0,0.603,0.017,1.208,0,1.811
				c-0.136,4.703-4.833,7.126-8.82,4.775c-10.309-6.08-20.521-12.331-30.788-18.481c-23.749-14.226-47.514-28.424-71.285-42.615
				c-8.406-5.018-16.812-10.035-25.219-15.05C213.665,349.837,212.658,351.565,213.763,352.225z"/>
		</g>
		<g>
			<path style="fill:#E0E0E0;" d="M281.496,383.123l-8.31-4.798c-1.522-0.879-2.756-3.236-2.756-5.266v-8.611
				c0-2.029,1.234-2.962,2.756-2.083l8.31,4.798c1.522,0.879,2.756,3.236,2.756,5.266v8.611
				C284.252,383.069,283.018,384.002,281.496,383.123z"/>
			<g>
				<path style="fill:#FFFFFF;" d="M277.341,376.818c-0.476-0.275-0.861-0.943-0.861-1.492v-6.16c0-0.549,0.385-0.772,0.861-0.497
					c0.476,0.275,0.861,0.943,0.861,1.492v6.16C278.202,376.87,277.817,377.093,277.341,376.818z"/>
				<path style="fill:#FFFFFF;" d="M280.008,375.278l-5.335-3.08c-0.476-0.275-0.861-0.943-0.861-1.492s0.385-0.772,0.861-0.497
					l5.335,3.08c0.476,0.275,0.861,0.943,0.861,1.492C280.87,375.33,280.484,375.553,280.008,375.278z"/>
			</g>
			<g>
				<path style="fill:#E0E0E0;" d="M251.354,352.608c0.882,0.509,1.712,1.385,2.335,2.465c1.288,2.23,1.288,4.65,0,5.393
					c-0.624,0.36-1.453,0.278-2.335-0.231c-0.882-0.509-1.712-1.385-2.336-2.465c-0.624-1.08-0.967-2.237-0.967-3.255
					c0-1.019,0.344-1.778,0.967-2.138C249.642,352.017,250.471,352.099,251.354,352.608 M251.354,350.62
					c-1.286-0.743-2.572-0.919-3.553-0.352c-1.963,1.133-1.963,4.807,0,8.206c0.981,1.699,2.267,3.009,3.553,3.751
					c1.286,0.742,2.572,0.918,3.553,0.352c1.962-1.133,1.962-4.807,0-8.206C253.926,352.671,252.64,351.362,251.354,350.62
					L251.354,350.62z"/>
				<path style="fill:#E0E0E0;" d="M258.662,370.075c-0.22-0.127-0.441-0.352-0.609-0.643l-3.755-6.504
					c-0.336-0.583-0.336-1.212,0-1.406c0.336-0.194,0.881,0.12,1.218,0.703l3.755,6.504c0.336,0.583,0.336,1.212,0,1.406
					C259.103,370.233,258.883,370.203,258.662,370.075z"/>
			</g>
			<path style="fill:#E0E0E0;" d="M309.528,383.72c-2.075-1.198-3.757,0.12-3.757,2.945c0-2.824-1.682-6.086-3.758-7.284
				c-2.075-1.198-3.757,0.12-3.757,2.945c0,7.193,7.515,14.608,7.515,14.608s7.515,1.262,7.515-5.931
				C313.285,388.18,311.603,384.919,309.528,383.72z"/>
			<g>
				<path style="fill:#E0E0E0;" d="M333.593,401.46c0,2.124-1.491,2.985-3.331,1.923c-1.84-1.062-3.331-3.645-3.331-5.769
					c0-2.124,1.491-2.985,3.331-1.923C332.102,396.754,333.593,399.336,333.593,401.46z"/>
				<path style="fill:#E0E0E0;" d="M330.263,403.383L330.263,403.383c-2.72-1.57-4.925,0.097-4.925,3.723v1.125l9.85,5.687v-1.125
					C335.188,409.167,332.983,404.954,330.263,403.383z"/>
			</g>
			<path style="fill:#E0E0E0;" d="M227.055,336.151l-6.641,2.186v9.317l5.146,2.971v-5.071c0-0.953,0.669-1.34,1.495-0.863
				c0.825,0.477,1.495,1.636,1.495,2.589v5.071l5.146,2.971v-9.317L227.055,336.151z"/>
		</g>
		<g>
			<g>
				<path style="fill:#BA68C8;" d="M250.307,326.574l-30.861-17.818c-2.428-1.402-4.397-5.163-4.397-8.401v-34.064
					c0-3.238,1.969-4.726,4.397-3.324l30.861,17.818c2.428,1.402,4.397,5.163,4.397,8.401v34.064
					C254.704,326.488,252.735,327.976,250.307,326.574z"/>
				<path style="opacity:0.5;fill:#FFFFFF;" d="M250.307,326.574l-30.861-17.818c-2.428-1.402-4.397-5.163-4.397-8.401v-34.064
					c0-3.238,1.969-4.726,4.397-3.324l30.861,17.818c2.428,1.402,4.397,5.163,4.397,8.401v34.064
					C254.704,326.488,252.735,327.976,250.307,326.574z"/>
				<g>
					<polygon style="fill:#BA68C8;" points="219.698,297.114 250.055,314.64 241.086,291.306 234.876,298.682 228.526,289.639 					
						"/>
					<path style="fill:#BA68C8;" d="M230.228,282.557c0,1.766,1.24,3.913,2.769,4.796c1.529,0.883,2.769,0.167,2.769-1.599
						s-1.24-3.913-2.769-4.796C231.468,280.075,230.228,280.791,230.228,282.557z"/>
				</g>
			</g>
			<g>
				<path style="fill:#BA68C8;" d="M293.231,351.374l-30.861-17.818c-2.428-1.402-4.397-5.163-4.397-8.401v-34.064
					c0-3.238,1.969-4.726,4.397-3.324l30.861,17.818c2.428,1.402,4.397,5.163,4.397,8.401v34.064
					C297.628,351.288,295.659,352.776,293.231,351.374z"/>
				<path style="opacity:0.5;fill:#FFFFFF;" d="M293.231,351.374l-30.861-17.818c-2.428-1.402-4.397-5.163-4.397-8.401v-34.064
					c0-3.238,1.969-4.726,4.397-3.324l30.861,17.818c2.428,1.402,4.397,5.163,4.397,8.401v34.064
					C297.628,351.288,295.659,352.776,293.231,351.374z"/>
				<g>
					<polygon style="fill:#BA68C8;" points="262.622,321.914 292.979,339.44 284.01,316.105 277.801,323.481 271.45,314.439 					
						"/>
					<path style="fill:#BA68C8;" d="M273.153,307.357c0,1.766,1.24,3.913,2.769,4.796c1.529,0.883,2.769,0.167,2.769-1.599
						c0-1.766-1.24-3.913-2.769-4.796C274.392,304.875,273.153,305.591,273.153,307.357z"/>
				</g>
			</g>
			<g>
				<path style="fill:#BA68C8;" d="M336.155,376.174l-30.861-17.818c-2.428-1.402-4.397-5.163-4.397-8.401v-34.064
					c0-3.238,1.968-4.726,4.397-3.324l30.861,17.818c2.428,1.402,4.397,5.163,4.397,8.401v34.064
					C340.552,376.088,338.584,377.576,336.155,376.174z"/>
				<path style="opacity:0.5;fill:#FFFFFF;" d="M336.155,376.174l-30.861-17.818c-2.428-1.402-4.397-5.163-4.397-8.401v-34.064
					c0-3.238,1.968-4.726,4.397-3.324l30.861,17.818c2.428,1.402,4.397,5.163,4.397,8.401v34.064
					C340.552,376.088,338.584,377.576,336.155,376.174z"/>
				<g>
					<polygon style="fill:#BA68C8;" points="305.547,346.713 335.903,364.24 326.935,340.905 320.725,348.281 314.375,339.239 					
						"/>
					<path style="fill:#BA68C8;" d="M316.077,332.156c0,1.766,1.24,3.913,2.769,4.796c1.529,0.883,2.769,0.167,2.769-1.599
						c0-1.766-1.24-3.913-2.769-4.796C317.316,329.675,316.077,330.391,316.077,332.156z"/>
				</g>
			</g>
		</g>
		<path style="fill:#E0E0E0;" d="M351.884,400.394c-0.114,0-0.23-0.029-0.337-0.091l-148.13-85.523
			c-0.323-0.186-0.435-0.6-0.248-0.923c0.187-0.323,0.598-0.435,0.924-0.248l148.13,85.523c0.323,0.187,0.435,0.6,0.248,0.923
			C352.345,400.272,352.118,400.394,351.884,400.394z"/>
		<path style="fill:#E0E0E0;" d="M351.884,322.449c-0.114,0-0.23-0.029-0.337-0.091l-148.13-85.523
			c-0.323-0.187-0.435-0.6-0.248-0.923c0.187-0.323,0.598-0.437,0.924-0.248l148.13,85.523c0.323,0.186,0.435,0.6,0.248,0.923
			C352.345,322.328,352.118,322.449,351.884,322.449z"/>
		<path style="fill:#E0E0E0;" d="M342.829,125.402L213.658,49.699c-4.402-2.58-9.942,0.595-9.942,5.697V67.58l0.039,0.002
			l148.13,85.523v-11.9C351.885,134.704,348.439,128.689,342.829,125.402z"/>
		
			<ellipse transform="matrix(0.866 -0.5 0.5 0.866 -41.5474 139.7191)" style="fill:#BA68C8;" cx="239.942" cy="147.387" rx="20.434" ry="35.392"/>
		
			<ellipse transform="matrix(0.866 -0.5 0.5 0.866 -82.1256 141.274)" style="fill:#E0E0E0;" cx="222.557" cy="223.885" rx="6.41" ry="11.102"/>
		<path style="fill:#E0E0E0;" d="M249.296,239.623c0,5.006-3.515,7.036-7.85,4.532c-4.336-2.503-7.85-8.591-7.85-13.597
			s3.515-7.036,7.85-4.532C245.781,228.529,249.296,234.616,249.296,239.623z"/>
		<path style="fill:#E0E0E0;" d="M268.184,250.828c0,5.006-3.515,7.036-7.85,4.532c-4.336-2.503-7.85-8.591-7.85-13.597
			c0-5.006,3.515-7.036,7.85-4.532C264.669,239.734,268.184,245.822,268.184,250.828z"/>
		<path style="fill:#E0E0E0;" d="M287.073,261.643c0,5.006-3.515,7.035-7.85,4.532c-4.336-2.503-7.85-8.591-7.85-13.597
			c0-5.006,3.515-7.036,7.85-4.532C283.558,250.549,287.073,256.636,287.073,261.643z"/>
		
			<ellipse transform="matrix(0.866 -0.5 0.5 0.866 -93.8752 184.9116)" style="fill:#E0E0E0;" cx="298.111" cy="267.628" rx="6.41" ry="11.102"/>
		
			<ellipse transform="matrix(0.866 -0.5 0.5 0.866 -96.8029 196.3963)" style="fill:#E0E0E0;" cx="318.077" cy="278.834" rx="6.41" ry="11.102"/>
		<path style="fill:#BA68C8;" d="M264.968,203.954c-0.17,0-0.342-0.043-0.499-0.134l-50.053-28.898
			c-0.479-0.276-0.643-0.888-0.366-1.366c0.276-0.479,0.889-0.643,1.366-0.366l50.053,28.898c0.478,0.276,0.642,0.888,0.366,1.366
			C265.649,203.774,265.314,203.954,264.968,203.954z"/>
		<path style="fill:#BA68C8;" d="M295.915,232.358c-0.17,0-0.342-0.043-0.499-0.134l-81-46.765
			c-0.479-0.276-0.643-0.888-0.366-1.366c0.276-0.479,0.889-0.643,1.366-0.366l81,46.765c0.479,0.276,0.643,0.888,0.366,1.366
			C296.597,232.179,296.261,232.358,295.915,232.358z"/>
		<path style="fill:#BA68C8;" d="M340.441,270.201c-0.17,0-0.342-0.043-0.499-0.134l-125.526-72.473
			c-0.479-0.276-0.643-0.888-0.366-1.366c0.276-0.479,0.889-0.642,1.366-0.366l125.526,72.473c0.478,0.276,0.643,0.888,0.366,1.366
			C341.123,270.022,340.787,270.201,340.441,270.201z"/>
		<path style="fill:#E0E0E0;" d="M338.058,281.41c-4.336-2.503-7.85-0.474-7.85,4.533c0,5.006,3.515,11.094,7.85,13.597V281.41z"/>
		<g>
			<path style="fill:#BA68C8;" d="M296.678,164.816c-0.141,0-0.282-0.036-0.413-0.111l-15.439-8.915
				c-0.396-0.229-0.531-0.735-0.303-1.131c0.229-0.396,0.733-0.53,1.131-0.303l15.44,8.915c0.396,0.229,0.531,0.735,0.303,1.131
				C297.242,164.668,296.964,164.816,296.678,164.816z"/>
			
				<text transform="matrix(0.866 0.5 0 1 281.0591 149.0315)" style="fill:#37474F; font-family:'Montserrat-ExtraBold'; font-size:10.713px;">100</text>
		</g>
		<g>
			<path style="fill:#BA68C8;" d="M317.559,177.217c-0.141,0-0.282-0.036-0.413-0.111l-15.44-8.914
				c-0.396-0.229-0.531-0.735-0.303-1.131c0.229-0.396,0.733-0.533,1.131-0.303l15.44,8.914c0.396,0.229,0.531,0.735,0.303,1.131
				C318.123,177.068,317.845,177.217,317.559,177.217z"/>
			
				<text transform="matrix(0.866 0.5 0 1 301.9394 161.4321)" style="fill:#37474F; font-family:'Montserrat-ExtraBold'; font-size:10.713px;">500</text>
		</g>
		<g>
			<path style="fill:#BA68C8;" d="M339.679,189.785c-0.141,0-0.282-0.036-0.413-0.111l-15.44-8.915
				c-0.396-0.228-0.531-0.735-0.303-1.131c0.229-0.396,0.733-0.532,1.131-0.303l15.441,8.915c0.395,0.229,0.531,0.735,0.303,1.131
				C340.243,189.637,339.965,189.785,339.679,189.785z"/>
			
				<text transform="matrix(0.866 0.5 0 1 324.0595 174.0002)" style="fill:#37474F; font-family:'Montserrat-ExtraBold'; font-size:10.713px;">150</text>
		</g>
		
			<text transform="matrix(0.866 0.5 0 1 215.0015 91.1462)" style="fill:#37474F; font-family:'Montserrat-ExtraBold'; font-size:10.713px;">profile</text>
	</g>
</g>
<g id="Character">
	<g>
		<polygon style="fill:#FFA8A7;" points="125.659,368.456 126.288,377.657 136.312,377.657 136.502,365.677 		"/>
		<path style="fill:#FFA8A7;" d="M96.566,375.646l-0.044,9.313c0,0,1.018,1.972,5.521,1.972c4.504,0,3.819-4.33,3.819-4.33
			l0.531-6.23L96.566,375.646z"/>
		<g>
			<path style="fill:#BA68C8;" d="M140.015,268.2l-1.362,98.415c0,0-4.795,6.056-15.439,2.179l-1.985-44.744l-4.557-53.274
				L140.015,268.2z"/>
			<path style="opacity:0.3;" d="M140.015,268.2l-1.362,98.415c0,0-4.795,6.056-15.439,2.179l-1.985-44.744l-4.557-53.274
				L140.015,268.2z"/>
			<path style="fill:#BA68C8;" d="M120.511,315.653l3.81-30.191c0,0,8.828-4.211,11.223-15.882l-16.513,0.936l-2.359,0.26
				L120.511,315.653z"/>
			<path style="opacity:0.5;" d="M120.511,315.653l3.81-30.191c0,0,8.828-4.211,11.223-15.882l-16.513,0.936l-2.359,0.26
				L120.511,315.653z"/>
			<path style="fill:#BA68C8;" d="M100.623,268.083l-2.372,52.34c0,0-4.13,37.153-4.13,56.056c0,0,6.463,3.948,14.454,1.178
				l8.096-54.798l6.644-39.274c0,0,11.317-3.232,14.202-14.792L100.623,268.083z"/>
			<path style="opacity:0.3;" d="M100.623,268.083l-2.372,52.34c0,0-4.13,37.153-4.13,56.056c0,0,6.463,3.948,14.454,1.178
				l8.096-54.798l6.644-39.274c0,0,11.317-3.232,14.202-14.792L100.623,268.083z"/>
		</g>
		<path style="fill:#37474F;" d="M130.196,209.384l16.776,0.07c0,0,3.532,5.742,0.947,13.325l-12.224,0.32L130.196,209.384z"/>
		<path style="fill:#455A64;" d="M113.797,209.789c0,0-6.513,0.817-8.537,1.346c-1.454,0.38-2.609,0.651-3.888,1.289
			c-0.977,0.488-1.554,1.525-1.494,2.616c0.302,5.435,1.239,22.394,1.26,24.24c0.026,2.201-0.516,28.802-0.516,28.802
			s1.295,5.616,22.169,5.616c11.082,0,17.223-5.499,17.223-5.499s-0.46-28.889-0.745-35.797c-0.285-6.908,0.912-20.694-9.074-23.019
			l-7.643-0.137L113.797,209.789z"/>
		<path style="fill:#263238;" d="M135.579,177.44c0,0,2.174,2.223,2.174,8.056c0,5.833-4.848,10.9-4.848,10.9V177.72L135.579,177.44
			z"/>
		<path style="fill:#263238;" d="M135.579,178.961c0,0,3.048-1.536,3.356-5.262c0.308-3.725-1.879-2.393-2.636-2.067
			c-0.757,0.326-3.006,1.145-3.006,1.145s2.076-2.158,0.84-3.6c-0.914-1.067-5.319,2.293-10.895,2.95
			c-5.576,0.657-10.922,0.606-12.488,5.592c0,0-5.385,1.083-4.094,10.518c1.291,9.435,5.45,15.185,7.142,15.101L135.579,178.961z"/>
		<g>
			<rect x="113.797" y="196.395" style="fill:#FFA8A7;" width="11.75" height="13.394"/>
			<path style="fill:#F28F8F;" d="M125.547,208.21c-3.108-0.272-9.038-2.96-10.675-9.515v-3.91h10.675V208.21z"/>
			<path style="fill:#FFA8A7;" d="M127.597,175.47c0,0,11.058,0.421,9.063,18.223c-0.938,8.373-1.626,13.004-8.794,13.004
				c-7.167,0-17.737-5.399-17.055-19.775C111.493,172.546,127.597,175.47,127.597,175.47z"/>
			<polygon style="fill:#F28F8F;" points="128.712,190.148 128.712,196.395 132.37,195.272 			"/>
			<g>
				<path style="fill:#263238;" d="M123.369,191.229c0,0.703,0.57,1.273,1.273,1.273c0.703,0,1.273-0.57,1.273-1.273
					c0-0.703-0.57-1.273-1.273-1.273C123.939,189.956,123.369,190.526,123.369,191.229z"/>
				<path style="fill:#263238;" d="M131.74,190.341c0,0.703,0.57,1.273,1.273,1.273c0.703,0,1.273-0.57,1.273-1.273
					c0-0.703-0.57-1.273-1.273-1.273C132.31,189.069,131.74,189.638,131.74,190.341z"/>
				<path style="fill:#263238;" d="M134.564,187.691l-2.489-1.478c0,0,0.955-0.992,1.906-0.396
					C134.932,186.413,134.564,187.691,134.564,187.691z"/>
				<path style="fill:#263238;" d="M123.979,187.261l-2.245,1.827c0,0-0.603-1.239,0.285-1.926
					C122.906,186.475,123.979,187.261,123.979,187.261z"/>
			</g>
			<path style="fill:#F28F8F;" d="M128.132,199.367c0,0-4.541-1.171-3.428-0.918c0,0-0.234,1.805,1.278,2.15
				C127.494,200.945,128.132,199.367,128.132,199.367z"/>
			<path style="fill:#263238;" d="M135.579,178.961c0,0-3.526,3.306-12.576,2.628c-9.05-0.678-8.26,1.829-7.276,6.059
				c0.679,2.921,0.74,10.666-1.513,6.87h-4.476v-8.948c0-6.315,5.119-11.434,11.434-11.434h9.26L135.579,178.961z"/>
			<path style="fill:#FFA8A7;" d="M114.324,194.061c0,0-0.454-4.284-3.426-4.365c-3.264-0.089-3.704,3.053-3.66,4.171
				c0.116,2.938,2.494,6.112,6.921,6.233L114.324,194.061z"/>
		</g>
		<path style="fill:#263238;" d="M110.75,177.72c0,0-2.29-3.04-0.819-4.298c1.471-1.258,2.149,3.957,2.149,3.957L110.75,177.72z"/>
		<path style="fill:#263238;" d="M110.945,178.725c0,0-3.805-0.052-3.899-1.986c-0.094-1.934,4.444,0.726,4.444,0.726
			L110.945,178.725z"/>
		<path style="fill:#FFA8A7;" d="M113.797,209.789c0,0,3.538,7.544,10.042,7.17c6.505-0.374,1.68-7.575,1.68-7.575L113.797,209.789z
			"/>
		<path style="fill:#FFA8A7;" d="M116.264,226.956l8.958,11.52c0,0,15.821,2.081,24.913,3.739v8.268c0,0-25.446,1.512-30.607-1.752
			c-5.162-3.264-13.114-12.902-13.114-12.902S108.142,227.574,116.264,226.956z"/>
		<path style="fill:#37474F;" d="M101.223,212.501c0,0,4.211-1.217,9.272,5.918c5.06,7.135,5.769,8.537,5.769,8.537
			s-6.239,1.386-9.85,8.873l-7.865-9.805c-3.466-4.321-2.293-10.804,2.566-13.465C101.151,212.54,101.187,212.52,101.223,212.501z"
			/>
		<path style="fill:#F28F8F;" d="M125.222,238.476c0,0-3.037,1.131-4.176,3.719c0,0,0.241-3.301,3.043-5.176L125.222,238.476z"/>
		<path style="fill:#FFA8A7;" d="M146.973,209.454l9.139-0.207c0,0-4.746-18.386-5.977-24.406c0,0-6.033-7.015-3.963-11.23
			c2.07-4.215,7.286-12.297,10-12.297c2.714,0,6.054,3.594,4.108,10.46c-1.946,6.867-1.35,9.284-1.35,9.284
			s8.83,18.449,10.143,29.778c1.313,11.329-6.651,11.944-21.152,11.944L146.973,209.454z"/>
		<g>
			<g>
				<g>
					<path style="fill:#E0E0E0;" d="M288.56,146.809v151.489c0,4.109-1.51,6.869-3.817,7.775l-0.065,0.022l-0.011,0.011l-9.802,5.37
						l0.054-8.724l1.089-159.868l10.352-5.295C287.73,140.522,288.56,143.779,288.56,146.809z"/>
					<path style="fill:#E0E0E0;" d="M274.36,312.322l0.059-9.574l1.091-160.172l11.084-5.669l0.22,0.47
						c1.449,3.103,2.247,6.452,2.247,9.432v151.489c0,4.143-1.546,7.224-4.135,8.24l-0.002-0.004l-0.016,0.01L274.36,312.322z
						 M276.506,143.191l-1.136,167.438l9.15-5.009c2.232-0.873,3.54-3.605,3.54-7.322V146.809c0-2.686-0.686-5.699-1.938-8.537
						L276.506,143.191z"/>
				</g>
				<g>
					<path style="fill:#EBEBEB;" d="M286.361,137.589l-10.352,5.295L165.217,78.43l-7.397-4.303l10.223-5.758l0.291-0.173v-0.011
						c1.628-0.981,3.763-0.917,6.114,0.442l104.871,60.55C282.144,130.806,284.668,133.944,286.361,137.589z"/>
					<path style="fill:#E0E0E0;" d="M275.992,143.453l-0.235-0.137L156.813,74.121l11.264-6.363
						c1.852-1.116,4.202-0.961,6.622,0.437l104.87,60.55c2.808,1.618,5.449,4.765,7.245,8.634l0.203,0.436L275.992,143.453z
						 M158.826,74.134l117.197,68.18l9.677-4.949c-1.702-3.486-4.102-6.297-6.632-7.754l-104.87-60.55
						c-2.014-1.163-3.936-1.354-5.438-0.543l-0.465,0.282L158.826,74.134z"/>
				</g>
				<g>
					<path style="fill:#FAFAFA;" d="M269.174,310.816l-104.878-60.551c-5.099-2.944-9.232-10.841-9.232-17.64V81.307
						c0-6.799,4.133-9.923,9.232-6.979l104.878,60.551c5.099,2.944,9.232,10.841,9.232,17.64v151.319
						C278.406,310.635,274.272,313.76,269.174,310.816z"/>
					<path style="fill:#E0E0E0;" d="M272.845,312.423c-1.236,0-2.569-0.393-3.921-1.173l-104.878-60.551
						c-5.229-3.019-9.482-11.126-9.482-18.073V81.307c0-3.758,1.254-6.637,3.441-7.899c1.837-1.062,4.161-0.887,6.541,0.487
						l104.878,60.551c5.229,3.019,9.483,11.126,9.483,18.073v151.319c0,3.758-1.254,6.637-3.441,7.899
						C274.671,312.195,273.785,312.423,272.845,312.423z M160.627,73.723c-0.77,0-1.485,0.183-2.122,0.55
						c-1.869,1.08-2.941,3.643-2.941,7.034v151.319c0,6.628,4.029,14.347,8.982,17.206l104.878,60.551
						c2.06,1.19,4.026,1.362,5.541,0.487c1.869-1.08,2.941-3.643,2.941-7.034V152.518c0-6.628-4.029-14.347-8.983-17.207
						L164.046,74.76C162.852,74.071,161.689,73.723,160.627,73.723z"/>
				</g>
			</g>
			<g>
				<g>
					<path style="fill:#E0E0E0;" d="M288.459,146.657v151.489c0,4.109-1.51,6.869-3.818,7.775l-0.065,0.022l-0.011,0.011
						l-9.802,5.37l0.054-8.724l1.089-159.868l10.352-5.295C287.629,140.37,288.459,143.627,288.459,146.657z"/>
					<path style="fill:#E0E0E0;" d="M274.259,312.171l0.06-9.574l1.091-160.172l11.084-5.669l0.22,0.47
						c1.448,3.103,2.246,6.452,2.246,9.431v151.489c0,4.144-1.546,7.224-4.135,8.24l-0.002-0.003l-0.016,0.009L274.259,312.171z
						 M276.405,143.039l-1.137,167.438l9.147-5.007c2.234-0.874,3.543-3.607,3.543-7.324V146.657c0-2.686-0.686-5.699-1.938-8.536
						L276.405,143.039z"/>
				</g>
				<g>
					<path style="fill:#EBEBEB;" d="M286.259,137.437l-10.352,5.295L165.116,78.278l-7.398-4.303l10.223-5.758l0.291-0.173v-0.011
						c1.628-0.981,3.764-0.917,6.114,0.442l104.871,60.55C282.043,130.654,284.566,133.792,286.259,137.437z"/>
					<path style="fill:#E0E0E0;" d="M275.892,143.301l-0.235-0.137L156.711,73.969l11.264-6.363
						c1.852-1.116,4.205-0.959,6.622,0.438l104.871,60.55c2.807,1.618,5.448,4.765,7.245,8.634l0.203,0.437L275.892,143.301z
						 M158.725,73.982l117.198,68.18l9.677-4.949c-1.703-3.486-4.103-6.297-6.632-7.755l-104.871-60.55
						c-2.017-1.166-3.941-1.354-5.441-0.542l-0.459,0.279L158.725,73.982z"/>
				</g>
				<path style="fill:#FAFAFA;" d="M278.301,152.362v151.327c0,3.559-1.132,6.114-2.944,7.311l-0.593,0.323
					c-1.574,0.744-3.548,0.582-5.694-0.658l-50.694-29.267l-23.681-13.674l-30.496-17.61c-5.101-2.944-9.242-10.848-9.242-17.642
					V81.157c0-3.44,1.057-5.931,2.761-7.182c0.291-0.216,0.604-0.399,0.938-0.528c1.542-0.658,3.462-0.464,5.543,0.733
					l104.871,60.55c2.717,1.564,5.155,4.54,6.837,8.002C277.395,145.762,278.301,149.181,278.301,152.362z"/>
			</g>
			<path style="fill:#FFA8A7;" d="M179.418,178.643c0.051,0.153-0.74,9.827,1.578,13.719l5.511,3.69l4.487-9.808l1.383-5.961
				l-1.003-2.417L179.418,178.643z"/>
			<path style="fill:#FFA8A7;" d="M177.39,235.208c3.242-0.444,12.413-6.059,12.413-6.059s0.48-14.019-7.685-15.816L177.39,235.208z
				"/>
			<polygon style="fill:#F28F8F;" points="185.338,212.238 179.805,227.022 186.167,218.368 			"/>
			<path style="fill:#BA68C8;" d="M207.5,197.492l-2.543,0.005c-3.829,0.008-7.529,1.388-10.426,3.892l-14.374,12.417
				c0,0,8.647,5.781,9.647,15.343l11.961-8.303L207.5,197.492z"/>
			<path style="fill:#FFA8A7;" d="M250.01,252.374l2.631,9.109l-12.757,6.048l2.13,14.017l20.624-6.892
				c6.455-2.157,10.051-9.03,8.143-15.562l-3.559-12.186L250.01,252.374z"/>
			<polygon style="fill:#455A64;" points="242.87,276.558 244.709,296.695 217.168,280.791 			"/>
			<path style="fill:#BA68C8;" d="M246.17,227.654l-2.831,11.775c-1.526,6.348-2.082,12.89-1.648,19.404l1.179,17.725
				c0,0-8.045,4.993-24.393,4.993l-23.681-13.674c0.259-4.637,1.51-26.064,3.602-43.361c2.351-19.508,9.101-27.024,9.101-27.024
				c1.132-0.032,10.428,0.69,10.428,0.69l14.547,1.014l13.695,6.522V227.654z"/>
			<path style="opacity:0.3;" d="M246.17,227.654l-2.831,11.775c-1.526,6.348-2.082,12.89-1.648,19.404l1.179,17.725
				c0,0-8.045,4.993-24.393,4.993l-23.681-13.674c0.259-4.637,1.51-26.064,3.602-43.361c2.351-19.508,9.101-27.024,9.101-27.024
				c1.132-0.032,10.428,0.69,10.428,0.69l14.547,1.014l13.695,6.522V227.654z"/>
			<path style="fill:#E0E0E0;" d="M272.81,312.425c-1.228,0-2.539-0.394-3.888-1.174l-104.871-60.55
				c-5.234-3.021-9.492-11.129-9.492-18.075V81.309c0-3.488,1.053-6.182,2.965-7.585c0.343-0.254,0.698-0.453,1.054-0.591
				c1.736-0.74,3.809-0.479,5.973,0.766l104.872,60.551c2.685,1.545,5.25,4.54,7.036,8.216c1.576,3.209,2.444,6.708,2.444,9.848
				v151.327c0,3.634-1.125,6.379-3.169,7.729l-0.629,0.345C274.384,312.255,273.614,312.425,272.81,312.425z M160.638,73.724
				c-0.596,0-1.16,0.111-1.684,0.335c-0.288,0.112-0.564,0.268-0.837,0.47c-1.65,1.211-2.559,3.619-2.559,6.78v151.316
				c0,6.627,4.034,14.347,8.992,17.209l104.871,60.55c1.936,1.121,3.745,1.342,5.229,0.639l0.567-0.311
				c1.692-1.12,2.684-3.632,2.684-6.872V152.514c0-2.991-0.832-6.333-2.344-9.41c-1.701-3.502-4.119-6.34-6.636-7.789
				l-104.872-60.55C162.848,74.074,161.693,73.724,160.638,73.724z"/>
			<path style="fill:#455A64;" d="M238.079,176.355c0,0,11.201,11.523,4.703,17.361c-1.981,1.78-12.45-0.347-14.926-3.448
				c-2.477-3.102-5.823-14.041-5.823-14.041L238.079,176.355z"/>
			<path style="fill:#FFA8A7;" d="M150.135,242.215c0,0,2.435-1.871,3.391-4.547c0.956-2.676,1.574-2.921,2.556-3.33v3.713
				c0,0,1.943,2.804,5.655,3.171c3.712,0.367,9.639,0.058,9.504,2.152c-0.135,2.094-3.74,7.66-7.763,7.66s-13.342-0.55-13.342-0.55
				V242.215z"/>
			<g>
				<path style="fill:#FFFFFF;" d="M269.174,134.878L164.296,74.327c-5.099-2.944-9.232,0.181-9.232,6.98v17.355l123.342,71.212
					v-17.355C278.406,145.72,274.272,137.822,269.174,134.878z"/>
				<path style="fill:#E0E0E0;" d="M278.906,170.74L154.564,98.95V81.307c0-3.758,1.254-6.637,3.441-7.899
					c1.837-1.062,4.161-0.887,6.541,0.487l104.878,60.551c5.229,3.019,9.483,11.126,9.483,18.073V170.74z M155.564,98.373
					l122.343,70.634v-16.489c0-6.628-4.029-14.347-8.983-17.207L164.046,74.76c-2.058-1.188-4.025-1.36-5.541-0.487
					c-1.869,1.08-2.941,3.643-2.941,7.034V98.373z"/>
			</g>
			<path style="fill:#BA68C8;" d="M175.635,98.224c0,3.795-2.664,5.333-5.951,3.436c-3.286-1.897-5.95-6.512-5.95-10.307
				c0-3.795,2.664-5.333,5.95-3.436C172.971,89.814,175.635,94.429,175.635,98.224z"/>
			<path style="fill:#BA68C8;" d="M224.762,125.986c-0.17,0-0.342-0.043-0.499-0.134l-42.284-24.413
				c-0.479-0.276-0.643-0.888-0.366-1.366c0.276-0.479,0.889-0.642,1.366-0.366l42.284,24.413c0.479,0.276,0.643,0.888,0.366,1.366
				C225.443,125.807,225.107,125.986,224.762,125.986z"/>
			<path style="fill:#E6E6E6;" d="M251.867,189.599l3.035,1.727v-1.074c-0.005-0.077-0.01-0.153-0.01-0.228
				c0-0.075,0.005-0.146,0.01-0.217v-0.025l0.001,0.001c0.109-1.424,1.187-1.969,2.503-1.21c0.561,0.324,1.076,0.836,1.495,1.436
				c0.297-1.934,1.874-2.632,3.781-1.531c2.118,1.223,3.836,4.197,3.836,6.643l0.002,2.301c0,0.371,0.197,0.714,0.517,0.901
				l1.785,1.048c0.788,0.462,1.272,1.307,1.272,2.221c0,0.816-0.884,1.326-1.591,0.918l-16.591-9.584
				c-0.896-0.518-1.449-1.475-1.449-2.51C250.464,189.695,251.242,189.243,251.867,189.599z"/>
			<path style="fill:#E6E6E6;" d="M171.21,130.435l3.776,2.148v-1.336c-0.006-0.095-0.012-0.19-0.012-0.284
				c0-0.094,0.006-0.182,0.012-0.27v-0.031l0.001,0.001c0.136-1.771,1.477-2.45,3.114-1.505c0.697,0.403,1.339,1.04,1.859,1.786
				c0.369-2.406,2.331-3.274,4.703-1.904c2.635,1.521,4.771,5.221,4.771,8.264l0.002,2.863c0,0.461,0.245,0.887,0.643,1.121
				l2.221,1.303c0.98,0.575,1.582,1.626,1.582,2.762c0,1.015-1.099,1.65-1.979,1.142l-20.637-11.922
				c-1.115-0.644-1.802-1.835-1.802-3.122C169.465,130.554,170.432,129.992,171.21,130.435z"/>
			<circle style="fill:#263238;" cx="214.784" cy="169.154" r="12.396"/>
			<g>
				<path style="fill:#FFA8A7;" d="M217.926,198.178c0,0-5.262,8.967,2.936,9.873c8.198,0.906,11.616-8.859,11.616-8.859
					L217.926,198.178z"/>
				<polygon style="fill:#FFA8A7;" points="217.926,198.178 232.479,199.192 232.479,182.603 217.926,182.603 				"/>
				<path style="fill:#F28F8F;" d="M217.926,197.235c3.85-0.337,11.195-3.666,13.222-11.784v-4.843h-13.222V197.235z"/>
				<path style="fill:#FFA8A7;" d="M215.388,156.686c0,0-13.696,0.521-11.225,22.571c1.162,10.371,2.014,16.106,10.892,16.106
					c8.877,0,21.969-6.687,21.123-24.493C235.332,153.064,215.388,156.686,215.388,156.686z"/>
				<polygon style="fill:#F28F8F;" points="214.006,174.866 214.006,182.603 209.476,181.212 				"/>
				<g>
					<path style="fill:#263238;" d="M220.624,176.204c0,0.87-0.706,1.576-1.576,1.576c-0.87,0-1.576-0.706-1.576-1.576
						c0-0.871,0.706-1.576,1.576-1.576C219.918,174.627,220.624,175.333,220.624,176.204z"/>
					<path style="fill:#263238;" d="M210.255,175.105c0,0.871-0.705,1.576-1.576,1.576c-0.871,0-1.576-0.706-1.576-1.576
						c0-0.871,0.706-1.576,1.576-1.576C209.55,173.528,210.255,174.234,210.255,175.105z"/>
					<path style="fill:#263238;" d="M206.759,171.822l3.082-1.831c0,0-1.183-1.229-2.361-0.491
						C206.303,170.239,206.759,171.822,206.759,171.822z"/>
					<path style="fill:#263238;" d="M219.869,171.29l2.781,2.263c0,0,0.746-1.534-0.352-2.385
						C221.198,170.316,219.869,171.29,219.869,171.29z"/>
				</g>
				<path style="fill:#F28F8F;" d="M214.725,186.283c0,0,5.624-1.45,4.245-1.137c0,0,0.29,2.236-1.583,2.663
					C215.514,188.238,214.725,186.283,214.725,186.283z"/>
				<path style="fill:#263238;" d="M205.501,161.01c0,0,4.367,4.094,15.576,3.255c11.209-0.839,10.231,2.265,9.012,7.505
					c-0.841,3.617-0.916,13.211,1.874,8.509h5.544v-11.082c0-7.822-6.341-14.162-14.162-14.162h-11.469L205.501,161.01z"/>
				<path style="fill:#455A64;" d="M203.454,164.486c4.816-0.852,21.682-2.389,35.501,14.157c0,0,3.014-1.873,2.729-10.608
					c-0.285-8.734-7.752-14.646-12.627-16.928c-4.756-2.226-22.7-6.185-26.673,12.24
					C202.244,164.001,202.796,164.602,203.454,164.486z"/>
				<path style="fill:#FFA8A7;" d="M231.826,179.712c0,0,0.562-5.306,4.244-5.407c4.042-0.111,4.588,3.781,4.533,5.166
					c-0.144,3.638-3.089,7.569-8.572,7.72L231.826,179.712z"/>
			</g>
			<path style="fill:#263238;" d="M207.627,160.104c0,0,8.403-0.089,12.034,1.002c0,0,0.875-5.238-4.56-5.487
				C210.686,155.417,209.551,156.027,207.627,160.104z"/>
			<path style="fill:#BA68C8;" d="M246.17,205.718l0.802,0.368c4.839,2.219,8.551,6.333,10.261,11.374l9.99,29.449l0,0
				c-4.97,4.102-11.341,6.108-17.765,5.593l-1.595-0.128l-7.415-24.74c-1.459-4.869-1.404-10.125,0.484-14.844
				C241.973,210.188,243.608,207.607,246.17,205.718z"/>
			<path style="fill:#FFA8A7;" d="M179.805,227.022l11.188-29.891l-9.997-4.769c0,0-18.686,24.781-18.686,33.516
				c0,8.735,7.284,10.381,15.08,9.33L179.805,227.022z"/>
			<path style="fill:#F28F8F;" d="M190.993,197.131"/>
			<path style="fill:#FFA8A7;" d="M191.325,178.504c0,0,1.174-15.454,0.868-16.516c-0.306-1.061-3.53-1.24-4.593,6.393
				c-1.064,7.632-1.094,11.29-1.094,11.29L191.325,178.504z"/>
			<path style="fill:#FFA8A7;" d="M194.194,179.872c0,0,5.87-13.727,5.921-14.79c0.051-1.063-2.834-2.227-6.174,4.402
				c-3.34,6.629-4.504,9.955-4.504,9.955L194.194,179.872z"/>
			<path style="fill:#F28F8F;" d="M194.194,180.248c-0.011,0-0.022-0.001-0.034-0.002l-4.757-0.432
				c-0.115-0.011-0.219-0.073-0.281-0.17c-0.063-0.097-0.077-0.218-0.038-0.327c0.028-0.081,0.718-2.038,2.549-5.948
				c0.089-0.188,0.312-0.268,0.499-0.18c0.188,0.087,0.269,0.311,0.181,0.499c-1.319,2.815-2.05,4.634-2.352,5.424l4.268,0.388
				c0.206,0.019,0.358,0.201,0.339,0.407C194.55,180.101,194.387,180.248,194.194,180.248z"/>
			<path style="fill:#FFA8A7;" d="M183.294,174.012c0,0-3.811-1.701-4.78,1.104c-0.969,2.805,0.439,9.587,2.39,10.755
				c1.951,1.168,3.726-0.47,2.663-3.907C182.505,178.527,183.294,174.012,183.294,174.012z"/>
			<path style="fill:#F28F8F;" d="M182.119,186.621c-0.451,0-0.931-0.144-1.407-0.429c-2.193-1.313-3.53-8.369-2.552-11.199
				c0.068-0.196,0.281-0.298,0.477-0.232c0.195,0.068,0.299,0.281,0.231,0.477c-0.938,2.711,0.479,9.264,2.228,10.311
				c0.575,0.344,1.131,0.414,1.567,0.198c0.456-0.228,0.749-0.756,0.826-1.486c0.021-0.206,0.206-0.36,0.412-0.334
				c0.206,0.022,0.355,0.206,0.334,0.412c-0.104,0.994-0.544,1.732-1.237,2.079C182.726,186.554,182.429,186.621,182.119,186.621z"
				/>
			<path style="fill:#FFA8A7;" d="M180.156,176.038"/>
			<path style="fill:#FFA8A7;" d="M187.089,173.319c0,0-3.811-1.701-4.78,1.104c-0.969,2.804,0.439,9.587,2.39,10.755
				c1.951,1.168,3.726-0.47,2.663-3.907S187.089,173.319,187.089,173.319z"/>
			<path style="fill:#F28F8F;" d="M185.917,185.925c-0.453,0-0.937-0.142-1.41-0.425c-2.192-1.313-3.529-8.369-2.552-11.2
				c0.068-0.196,0.285-0.3,0.477-0.232c0.196,0.068,0.3,0.281,0.232,0.477c-0.937,2.711,0.48,9.264,2.228,10.311
				c0.67,0.401,1.314,0.427,1.765,0.072c0.562-0.441,0.948-1.604,0.348-3.546c-1.077-3.483-0.317-7.939-0.284-8.127
				c0.034-0.203,0.224-0.345,0.434-0.305c0.204,0.035,0.341,0.23,0.305,0.434c-0.008,0.044-0.76,4.469,0.263,7.777
				c0.605,1.958,0.381,3.587-0.601,4.357C186.774,185.79,186.36,185.925,185.917,185.925z"/>
			<path style="fill:#FFA8A7;" d="M190.993,197.131c0,0,4.864-6.292,6.082-10.896c1.218-4.604-0.418-7.56-3.041-8.005
				c-2.623-0.445-10.582-0.187-8.323,2.518c2.259,2.705,4.664,0.842,5.688,1.571c0,0-7.971,3.959-6.813,11.757L190.993,197.131z"/>
			<path style="fill:#F28F8F;" d="M185.208,189.209c-0.048,0-0.096-0.009-0.143-0.028c-0.191-0.079-0.283-0.298-0.204-0.49
				c1.321-3.206,3.993-5.249,5.423-6.16c-0.112,0.011-0.229,0.024-0.351,0.038c-1.229,0.142-2.909,0.336-4.511-1.582
				c-0.642-0.769-0.531-1.356-0.326-1.714c1.062-1.845,7.264-1.709,9-1.414c0.463,0.079,0.9,0.229,1.302,0.448
				c0.182,0.099,0.249,0.327,0.149,0.509c-0.1,0.182-0.33,0.249-0.509,0.149c-0.328-0.179-0.688-0.303-1.067-0.367
				c-2.287-0.387-7.537-0.147-8.225,1.048c-0.047,0.082-0.189,0.331,0.252,0.86c1.343,1.608,2.677,1.453,3.848,1.317
				c0.667-0.077,1.294-0.149,1.77,0.188c0.107,0.077,0.166,0.204,0.156,0.335c-0.011,0.131-0.089,0.247-0.207,0.307
				c-0.043,0.021-4.304,2.182-6.011,6.323C185.495,189.122,185.355,189.209,185.208,189.209z"/>
			<path style="fill:#BA68C8;" d="M241.324,251.868c-0.117,0.069-5.585,3.251-20.452,3.251c-14.812,0-24.569-8.853-24.848-9.109
				c-0.15,1.853-0.29,3.658-0.42,5.39c3.873,3.044,12.834,8.976,23.878,8.976c14.854,0,21.812-3.369,21.812-3.369l0.003-0.003
				C241.238,255.291,241.245,253.578,241.324,251.868z"/>
		</g>
		<g>
			<path style="fill:#FFA8A7;" d="M149.102,174.779c0,0,0.413-0.649,4.322-3.134c2.084-1.325,3.204-4.536,4.807-4.183
				c1.603,0.353,1.506,5.907-2.772,8.064c0,0,0.884,5.536-2.836,7.68L149.102,174.779z"/>
			<path style="fill:#F28F8F;" d="M152.811,183.531l-0.375-0.65c3.455-1.992,2.661-7.244,2.653-7.296
				c-0.026-0.161,0.056-0.32,0.201-0.394c2.922-1.473,3.691-4.562,3.489-6.163c-0.084-0.663-0.331-1.134-0.63-1.2
				c-0.675-0.153-1.378,0.727-2.177,1.744c-0.658,0.838-1.404,1.788-2.348,2.389c-3.659,2.326-4.196,3.006-4.217,3.034l-0.623-0.417
				c0.076-0.12,0.649-0.841,4.438-3.25c0.835-0.531,1.539-1.428,2.16-2.219c0.915-1.166,1.773-2.267,2.929-2.014
				c0.641,0.141,1.082,0.811,1.212,1.839c0.23,1.83-0.566,5.103-3.659,6.802C155.996,176.914,156.27,181.536,152.811,183.531z"/>
		</g>
		<g>
			<path style="fill:#455A64;" d="M96.529,383.562c0,0,1.017,2.559,2.836,2.407c0,0-0.642-4.197,3.347-4.197
				c3.988,0,4.17,0.188,4.17,4.203c0,0,0.764,5.59,3.732,8.738c2.968,3.148,7.32,9.868-1.333,11.189
				c-8.653,1.321-11.034-7.561-11.426-8.938c-0.517-1.819-4.211-3.115-2.424-7.846c0.506-1.34,0.284-3.301,0.185-4.769
				c-0.099-1.467,0.907-2.176,0.907-2.176L96.529,383.562z"/>
			<g>
				<path style="fill:#263238;" d="M109.666,404.979c-8.886,1.356-11.331-7.765-11.733-9.178c-0.395-1.392-2.599-2.488-2.94-4.964
					c-0.413,3.364,2.414,4.552,2.862,6.128c0.391,1.377,2.772,10.259,11.426,8.938c3.066-0.468,4.494-1.615,4.935-3.04
					C113.469,403.848,112.053,404.615,109.666,404.979z"/>
			</g>
			<path style="fill:#FFFFFF;" d="M101.458,389.393c-0.103,0-0.204-0.042-0.278-0.124c-0.139-0.153-0.127-0.391,0.026-0.53
				c0.13-0.117,3.196-2.841,6.227-1.25c0.183,0.096,0.254,0.323,0.157,0.506c-0.097,0.184-0.325,0.254-0.507,0.158
				c-2.569-1.352-5.346,1.117-5.373,1.143C101.638,389.36,101.548,389.393,101.458,389.393z"/>
			<path style="fill:#FFFFFF;" d="M102.659,392.104c-0.103,0-0.204-0.042-0.278-0.124c-0.139-0.153-0.127-0.391,0.026-0.53
				c0.13-0.116,3.195-2.842,6.227-1.25c0.183,0.096,0.254,0.323,0.157,0.506c-0.097,0.185-0.325,0.254-0.507,0.158
				c-2.568-1.351-5.346,1.117-5.373,1.143C102.839,392.072,102.749,392.104,102.659,392.104z"/>
			<path style="fill:#FFFFFF;" d="M103.683,394.639c-0.103,0-0.204-0.042-0.278-0.124c-0.139-0.153-0.127-0.391,0.026-0.53
				c0.13-0.117,3.196-2.841,6.227-1.25c0.183,0.096,0.254,0.323,0.157,0.506c-0.097,0.185-0.324,0.254-0.507,0.158
				c-2.567-1.35-5.346,1.117-5.373,1.143C103.862,394.606,103.772,394.639,103.683,394.639z"/>
		</g>
		<g>
			<path style="fill:#455A64;" d="M126.123,375.237c0,0,1.679,1.016,2.438,1.572c0.759,0.557,3.322,0.689,3.989-0.06
				c0.667-0.749-0.396-2.824,3.096-4.039c3.492-1.214,2.501,3.676,2.501,3.676s1.276,3.089,5.688,4.907
				c4.412,1.819,11.045,2.276,8.046,8.14c-1.307,2.556-9.734,4.685-15.262,0.651c-1.48-1.08-3.706-1.741-6.034-1.741
				c-2.328,0-7.3-1.145-6.863-4.847c0.436-3.702,1.28-4.488,1.275-5.84c-0.005-1.352-0.222-2.83,1.064-3.331L126.123,375.237z"/>
			<g>
				<path style="fill:#263238;" d="M136.512,389.079c-1.582-1.154-3.962-1.861-6.451-1.861c-1.633,0-4.474-0.534-6.109-2.013
					c0.996,2.355,4.711,3.139,6.633,3.139c2.328,0,4.554,0.661,6.034,1.741c5.526,4.033,13.947,1.908,15.259-0.647
					C149.072,391.605,141.633,392.817,136.512,389.079z"/>
			</g>
			<path style="fill:#FFFFFF;" d="M134.029,381.127c-0.043,0-0.086-0.007-0.128-0.023c-0.195-0.071-0.295-0.286-0.225-0.48
				c0.059-0.164,1.495-4.007,4.917-4.02h0.001c0.206,0,0.374,0.167,0.375,0.373c0.001,0.207-0.167,0.376-0.374,0.377
				c-2.895,0.01-4.201,3.491-4.214,3.526C134.326,381.033,134.183,381.127,134.029,381.127z"/>
			<path style="fill:#FFFFFF;" d="M136.841,382.868c-0.043,0-0.086-0.007-0.128-0.023c-0.194-0.071-0.295-0.286-0.225-0.48
				c0.05-0.138,1.263-3.387,4.163-3.397h0.001c0.206,0,0.374,0.167,0.375,0.374c0.001,0.207-0.167,0.376-0.374,0.376
				c-2.373,0.008-3.449,2.874-3.46,2.903C137.138,382.773,136.994,382.868,136.841,382.868z"/>
			<path style="fill:#FFFFFF;" d="M140.015,384.819c-0.043,0-0.086-0.007-0.128-0.022c-0.194-0.071-0.295-0.286-0.225-0.48
				c0.05-0.138,1.264-3.387,4.163-3.397h0.001c0.206,0,0.374,0.167,0.375,0.374c0.001,0.207-0.167,0.376-0.374,0.376
				c-2.381,0.008-3.449,2.874-3.46,2.903C140.311,384.725,140.168,384.819,140.015,384.819z"/>
		</g>
	</g>
</g>
<g id="Sparkles">
	<g>
		<path style="fill:#BA68C8;" d="M438.427,217.645c-0.476-0.275-0.861-0.943-0.861-1.492v-6.16c0-0.549,0.385-0.772,0.861-0.497
			c0.476,0.275,0.861,0.943,0.861,1.492v6.16C439.288,217.697,438.903,217.92,438.427,217.645z"/>
		<path style="fill:#BA68C8;" d="M441.095,216.105l-5.335-3.08c-0.476-0.275-0.861-0.943-0.861-1.492s0.385-0.772,0.861-0.497
			l5.335,3.08c0.476,0.275,0.861,0.943,0.861,1.492C441.956,216.157,441.571,216.38,441.095,216.105z"/>
	</g>
	<g>
		<path style="fill:#BA68C8;" d="M445.484,201.023c-0.476-0.275-0.861-0.943-0.861-1.492v-6.16c0-0.549,0.385-0.772,0.861-0.497
			c0.476,0.275,0.861,0.943,0.861,1.492v6.16C446.345,201.075,445.96,201.298,445.484,201.023z"/>
		<path style="fill:#BA68C8;" d="M448.152,199.483l-5.335-3.08c-0.476-0.275-0.861-0.943-0.861-1.492
			c0-0.549,0.385-0.772,0.861-0.497l5.335,3.08c0.476,0.275,0.861,0.943,0.861,1.492
			C449.013,199.535,448.628,199.758,448.152,199.483z"/>
	</g>
	<g>
		<path style="fill:#BA68C8;" d="M412.431,275.895c-0.476-0.275-0.861-0.943-0.861-1.492v-6.16c0-0.549,0.385-0.772,0.861-0.497
			c0.476,0.275,0.861,0.943,0.861,1.492v6.16C413.293,275.947,412.907,276.17,412.431,275.895z"/>
		<path style="fill:#BA68C8;" d="M415.099,274.355l-5.335-3.08c-0.476-0.275-0.861-0.943-0.861-1.492s0.385-0.772,0.861-0.497
			l5.335,3.08c0.476,0.275,0.861,0.943,0.861,1.492S415.575,274.63,415.099,274.355z"/>
	</g>
	<g>
		<path style="fill:#BA68C8;" d="M305.541,206.728c-0.476-0.275-0.861-0.943-0.861-1.492v-6.16c0-0.549,0.385-0.772,0.861-0.497
			c0.476,0.275,0.861,0.942,0.861,1.492v6.16C306.402,206.78,306.017,207.003,305.541,206.728z"/>
		<path style="fill:#BA68C8;" d="M308.209,205.188l-5.335-3.08c-0.476-0.275-0.861-0.942-0.861-1.492
			c0-0.549,0.385-0.772,0.861-0.497l5.335,3.08c0.476,0.275,0.861,0.942,0.861,1.492C309.07,205.24,308.685,205.463,308.209,205.188
			z"/>
	</g>
	<path style="fill:#BA68C8;" d="M408.849,360.218c-0.627,0-1.3-0.194-1.963-0.577c-2.109-1.217-3.762-4.078-3.762-6.514
		c0-1.358,0.53-2.443,1.455-2.977c0.925-0.534,2.129-0.451,3.307,0.228c2.108,1.218,3.761,4.079,3.761,6.514
		c0,1.358-0.53,2.443-1.455,2.977C409.788,360.103,409.332,360.218,408.849,360.218z M405.929,351.8
		c-0.136,0-0.254,0.027-0.35,0.082c-0.285,0.165-0.455,0.63-0.455,1.245c0,1.729,1.265,3.918,2.762,4.782
		c0.533,0.309,1.021,0.392,1.306,0.228c0.285-0.165,0.455-0.63,0.455-1.245c0-1.728-1.265-3.918-2.761-4.782
		C406.531,351.906,406.197,351.8,405.929,351.8z"/>
	<path style="fill:#BA68C8;" d="M428.657,292.448c-0.627,0-1.3-0.193-1.963-0.576c-2.109-1.218-3.762-4.079-3.762-6.515
		c0-1.358,0.53-2.443,1.455-2.977c0.924-0.534,2.128-0.451,3.307,0.228c2.108,1.218,3.761,4.08,3.761,6.515
		c0,1.358-0.53,2.443-1.455,2.977C429.597,292.333,429.141,292.448,428.657,292.448z M425.737,284.03
		c-0.136,0-0.254,0.027-0.35,0.082c-0.285,0.165-0.455,0.63-0.455,1.245c0,1.728,1.265,3.919,2.762,4.782
		c0.532,0.309,1.021,0.393,1.306,0.229c0.285-0.165,0.455-0.63,0.455-1.245c0-1.728-1.265-3.918-2.761-4.783
		C426.34,284.136,426.006,284.03,425.737,284.03z"/>
	<path style="fill:#BA68C8;" d="M367.345,223.847c-0.627,0-1.3-0.194-1.963-0.577c-2.109-1.217-3.762-4.078-3.762-6.514
		c0-1.358,0.53-2.443,1.455-2.977c0.925-0.534,2.129-0.451,3.307,0.228c2.108,1.218,3.761,4.08,3.761,6.515
		c0,1.358-0.53,2.443-1.455,2.977C368.284,223.731,367.828,223.847,367.345,223.847z M364.425,215.429
		c-0.136,0-0.254,0.027-0.35,0.082c-0.285,0.165-0.455,0.63-0.455,1.245c0,1.729,1.265,3.918,2.762,4.782
		c0.532,0.307,1.019,0.393,1.306,0.229c0.285-0.165,0.455-0.63,0.455-1.245c0-1.728-1.265-3.918-2.761-4.783
		C365.027,215.535,364.693,215.429,364.425,215.429z"/>
</g>
<g id="Icons">
	<g>
		<g>
			<path style="fill:#BA68C8;" d="M405.278,307.346c0-10.391-7.295-23.027-16.295-28.223c-4.56-2.633-8.681-2.846-11.639-1.067
				l0-0.001l-6.118,3.584l1.843,3.076c-0.246,1.158-0.38,2.43-0.38,3.816c0,10.391,7.295,23.027,16.295,28.223
				c1.515,0.875,2.981,1.477,4.373,1.834l1.527,2.55l5.291-3.069c0.233-0.12,0.459-0.251,0.678-0.393l0.012-0.007l0,0
				C403.6,315.88,405.278,312.325,405.278,307.346z"/>
			<path style="opacity:0.3;" d="M405.278,307.346c0-10.391-7.295-23.027-16.295-28.223c-4.56-2.633-8.681-2.846-11.639-1.067
				l0-0.001l-6.118,3.584l1.843,3.076c-0.246,1.158-0.38,2.43-0.38,3.816c0,10.391,7.295,23.027,16.295,28.223
				c1.515,0.875,2.981,1.477,4.373,1.834l1.527,2.55l5.291-3.069c0.233-0.12,0.459-0.251,0.678-0.393l0.012-0.007l0,0
				C403.6,315.88,405.278,312.325,405.278,307.346z"/>
			<path style="fill:#BA68C8;" d="M399.733,310.547c0,10.391-7.295,14.603-16.295,9.408c-8.999-5.196-16.294-17.832-16.294-28.223
				c0-10.391,7.295-14.603,16.294-9.408C392.438,287.52,399.733,300.156,399.733,310.547z"/>
			<path style="fill:#FFFFFF;" d="M388.087,295.871c-2.567-1.482-4.649,0.149-4.649,3.643c0-3.494-2.081-7.529-4.648-9.011
				c-2.567-1.482-4.648,0.149-4.648,3.643c0,8.899,9.297,18.072,9.297,18.072s9.297,1.562,9.297-7.337
				C392.736,301.387,390.654,297.353,388.087,295.871z"/>
		</g>
		<g>
			<path style="fill:#BA68C8;" d="M305.542,178.965c0-10.391-7.295-23.027-16.294-28.223c-4.56-2.633-8.681-2.846-11.639-1.067
				l0-0.001l-6.118,3.584l1.843,3.076c-0.246,1.158-0.38,2.43-0.38,3.816c0,10.391,7.295,23.027,16.295,28.223
				c1.515,0.875,2.981,1.477,4.373,1.834l1.527,2.55l5.291-3.069c0.233-0.12,0.459-0.251,0.678-0.393l0.012-0.007l0-0.001
				C303.864,187.499,305.542,183.944,305.542,178.965z"/>
			<path style="opacity:0.3;" d="M305.542,178.965c0-10.391-7.295-23.027-16.294-28.223c-4.56-2.633-8.681-2.846-11.639-1.067
				l0-0.001l-6.118,3.584l1.843,3.076c-0.246,1.158-0.38,2.43-0.38,3.816c0,10.391,7.295,23.027,16.295,28.223
				c1.515,0.875,2.981,1.477,4.373,1.834l1.527,2.55l5.291-3.069c0.233-0.12,0.459-0.251,0.678-0.393l0.012-0.007l0-0.001
				C303.864,187.499,305.542,183.944,305.542,178.965z"/>
			<path style="fill:#BA68C8;" d="M299.997,182.166c0,10.391-7.295,14.603-16.295,9.408c-8.999-5.196-16.295-17.832-16.295-28.223
				c0-10.391,7.295-14.603,16.295-9.408C292.701,159.139,299.997,171.775,299.997,182.166z"/>
			<path style="fill:#FFFFFF;" d="M288.351,167.49c-2.568-1.482-4.649,0.149-4.649,3.643c0-3.495-2.081-7.529-4.648-9.011
				c-2.567-1.482-4.649,0.149-4.649,3.643c0,8.899,9.297,18.072,9.297,18.072s9.297,1.562,9.297-7.337
				C292.999,173.006,290.918,168.972,288.351,167.49z"/>
		</g>
		<g>
			<path style="fill:#BA68C8;" d="M365.881,246.028c0-9.01-6.325-19.965-14.128-24.47c-3.954-2.283-7.527-2.468-10.091-0.925
				l0-0.001l-5.305,3.107l1.598,2.667c-0.213,1.004-0.329,2.107-0.329,3.308c0,9.01,6.325,19.965,14.128,24.47
				c1.314,0.759,2.584,1.281,3.791,1.59l1.324,2.211l4.588-2.661c0.202-0.104,0.398-0.217,0.588-0.341l0.011-0.006l0,0
				C364.427,253.428,365.881,250.345,365.881,246.028z"/>
			<path style="opacity:0.3;" d="M365.881,246.028c0-9.01-6.325-19.965-14.128-24.47c-3.954-2.283-7.527-2.468-10.091-0.925l0-0.001
				l-5.305,3.107l1.598,2.667c-0.213,1.004-0.329,2.107-0.329,3.308c0,9.01,6.325,19.965,14.128,24.47
				c1.314,0.759,2.584,1.281,3.791,1.59l1.324,2.211l4.588-2.661c0.202-0.104,0.398-0.217,0.588-0.341l0.011-0.006l0,0
				C364.427,253.428,365.881,250.345,365.881,246.028z"/>
			
				<ellipse transform="matrix(0.866 -0.5 0.5 0.866 -73.8416 205.715)" style="fill:#BA68C8;" cx="346.946" cy="240.647" rx="11.535" ry="19.98"/>
			<path style="fill:#FFFFFF;" d="M350.976,236.078c-2.226-1.285-4.03,0.129-4.03,3.159c0-3.03-1.804-6.528-4.03-7.813
				c-2.226-1.285-4.03,0.129-4.03,3.159c0,7.715,8.061,15.669,8.061,15.669s8.061,1.354,8.061-6.361
				C355.007,240.861,353.202,237.363,350.976,236.078z"/>
		</g>
		<g>
			<path style="fill:#BA68C8;" d="M441.956,179.98c0-9.01-6.325-19.965-14.128-24.47c-3.954-2.283-7.527-2.468-10.091-0.925l0-0.001
				l-5.305,3.107l1.598,2.667c-0.213,1.004-0.329,2.107-0.329,3.308c0,9.01,6.325,19.965,14.128,24.47
				c1.314,0.759,2.584,1.28,3.791,1.59l1.324,2.211l4.588-2.661c0.202-0.104,0.398-0.217,0.588-0.341l0.011-0.006l0-0.001
				C440.501,187.38,441.956,184.298,441.956,179.98z"/>
			<path style="opacity:0.3;" d="M441.956,179.98c0-9.01-6.325-19.965-14.128-24.47c-3.954-2.283-7.527-2.468-10.091-0.925l0-0.001
				l-5.305,3.107l1.598,2.667c-0.213,1.004-0.329,2.107-0.329,3.308c0,9.01,6.325,19.965,14.128,24.47
				c1.314,0.759,2.584,1.28,3.791,1.59l1.324,2.211l4.588-2.661c0.202-0.104,0.398-0.217,0.588-0.341l0.011-0.006l0-0.001
				C440.501,187.38,441.956,184.298,441.956,179.98z"/>
			<path style="fill:#BA68C8;" d="M437.148,182.756c0,9.01-6.325,12.662-14.128,8.157c-7.803-4.505-14.128-15.46-14.128-24.47
				c0-9.01,6.325-12.661,14.128-8.157C430.823,162.791,437.148,173.747,437.148,182.756z"/>
			<path style="fill:#FFFFFF;" d="M427.051,170.031c-2.226-1.285-4.03,0.129-4.03,3.159c0-3.03-1.804-6.528-4.03-7.813
				c-2.226-1.285-4.03,0.129-4.03,3.159c0,7.715,8.061,15.669,8.061,15.669s8.061,1.354,8.061-6.361
				C431.081,174.814,429.277,171.316,427.051,170.031z"/>
		</g>
	</g>
</g>
</svg>
