<?xml version="1.0" encoding="utf-8"?>
<!-- Generator: Adobe Illustrator 27.5.0, SVG Export Plug-In . SVG Version: 6.00 Build 0)  -->
<svg version="1.1" id="_x3C_Layer_x3E_" xmlns="http://www.w3.org/2000/svg" xmlns:xlink="http://www.w3.org/1999/xlink" x="0px"
	 y="0px" viewBox="0 0 2760 1840" style="enable-background:new 0 0 2760 1840;" xml:space="preserve">
<rect style="fill:#FFFFFF;" width="2760" height="1840"/>
<g>
	<g>
		<path style="fill:#DAEBE8;" d="M2320.599,1701.5c-205.347,25.552-416.906,14.905-849.18-11.832
			c-242.731-15.014-730.778,9.861-974.387,11.832c-177.602,1.437-321.59-130.361-321.59-291.17V919.838V407.47
			c0-160.809,144.288-300.629,321.59-291.17c164.654,8.784,406.839,43.56,659.299,22.266
			c300.264-25.325,870.186-46.845,1164.268-22.266c176.857,14.782,321.59,130.361,321.59,291.17v1002.86
			C2642.189,1571.139,2496.554,1679.606,2320.599,1701.5z"/>
	</g>
	<g>
		<g>
			<g>
				<path style="fill:#CCD39C;" d="M1895.468,1409.539c-31.284-9.89-38.489,29.204-76.432,19.115
					c-2.578-7.324-31.496-27.935-31.496-27.935c-16.393-31.268-14.527-61.09-70.289-67.324
					c-39.994-4.492-34.569-39.282-43.547-68.278c-0.16-0.529-0.331-1.056-0.502-1.583c-3.576-10.809-9.343-20.708-20.462-27.784
					c-11.798-7.499-23.302-17.042-32.75-27.508c-0.786-0.863-1.558-1.739-2.315-2.627c-18.495-21.544-27.893-46.454-13.37-65.067
					c0.341-0.442,0.697-0.88,1.067-1.307c2.587-3.024,5.838-5.875,9.814-8.5c41.447-27.344,68.738-5.208,102.996,11.004
					c18.942,8.96,54.731-7.943,86.107-11.738c0.448-0.056,0.901-0.105,1.348-0.156c24.819-2.708,46.659,3.209,54.851,37.29
					c-0.002,0.005,0.004,0.007,0.002,0.012c0.167,0.692,0.335,1.378,0.501,2.053c18.588,75.214,43.977,57.611,93.306,85.091
					c9.172,5.117,17.297,10.18,21.597,17.132C2015.994,1336.221,1959.526,1392.814,1895.468,1409.539z"/>
			</g>
		</g>
		<g>
			<g>
				<g>
					<path style="fill:#C2C68E;" d="M1918.507,1348.276l2.607-1.882c-0.828-1.15-85.659-116.111-316.219-207.344l-1.184,2.992
						C1833.406,1232.933,1917.681,1347.133,1918.507,1348.276z"/>
				</g>
			</g>
			<g>
				<g>
					<path style="fill:#C2C68E;" d="M1806.941,1205.086c40.86-16.291,54.344-36.217,54.898-37.056l-2.684-1.773
						c-0.131,0.198-13.589,19.965-53.407,35.841L1806.941,1205.086z"/>
				</g>
			</g>
			<g>
				<g>
					<path style="fill:#C2C68E;" d="M1789.617,1235.684c14.221-12.01,21.48-34.2,20.992-64.169
						c-0.364-22.443-4.964-41.634-5.01-41.825l-3.125,0.758c0.181,0.748,17.765,75.164-14.935,102.78L1789.617,1235.684z"/>
				</g>
			</g>
			<g>
				<g>
					<path style="fill:#C2C68E;" d="M1730.345,1207.856c4.778-1.708,7.484-2.966,7.607-3.025l-1.379-2.905
						c-0.568,0.27-57.58,26.698-118.298,2.198l-1.202,2.981C1665.997,1226.848,1712.545,1214.222,1730.345,1207.856z"/>
				</g>
			</g>
			<g>
				<g>
					<path style="fill:#C2C68E;" d="M1674.442,1266.516c19.779-10.464,29.54-24.611,34.245-34.636
						c5.122-10.912,5.53-19.272,5.546-19.623l-3.215-0.138c-0.015,0.322-1.868,32.395-38.082,51.554L1674.442,1266.516z"/>
				</g>
			</g>
		</g>
	</g>
	<g style="opacity:0.6;">
		<path style="fill:#ACC9C5;" d="M1996.547,1436.579c-38.661,3.257-70.543-36.617-64.762-80.969
			c28.194-216.283,115.013-757.23,274.763-723.961c192.396,40.067-142.123,518.268-182.065,775.766
			C2021.994,1423.464,2010.611,1435.395,1996.547,1436.579L1996.547,1436.579z"/>
	</g>
	<g>
		<g>
			<path style="fill:#CCD39C;" d="M1910.448,1395.429c0,0,291.279-681.083,507.832-597.126s-315.298,414.247-392.629,615.132
				L1910.448,1395.429z"/>
		</g>
		<g>
			<g>
				<path style="fill:#C2C68E;" d="M1974.803,1406.069c50.883-139.706,153.773-272.823,231.125-359.891
					c83.861-94.394,156.564-156.465,157.289-157.081l-3.848-4.525c-0.727,0.618-73.749,62.959-157.882,157.661
					c-77.696,87.456-181.061,221.218-232.264,361.802L1974.803,1406.069z"/>
			</g>
		</g>
	</g>
	<g>
		<g>
			<g>
				<path style="fill:#ACC9C5;" d="M2432.244,1272.36c-60.139,33.531-19.775,127.729-98.644,131.984
					c-66.715,3.562-73.68-0.571-89.718,23.843c-5.498,8.369-9.64,17.541-12.583,27.111c-3.527,11.47-11.665,29.265-29.502,38.308
					c-108.978,55.247-318.216-67.091-226.669-197.478c6.611-9.415,18.442-15.866,31.752-22.311
					c72.219-34.911,106.438-7.299,138.966-114.831c32.541-107.562,152.615-4.106,202.089-24.093
					c49.474-19.987,89.642-48.876,145.662-7.058C2549.635,1169.696,2492.401,1238.872,2432.244,1272.36z"/>
			</g>
		</g>
		<g style="opacity:0.5;">
			<g>
				<g>
					<path style="fill:#68A1BF;" d="M2049.512,1408.831l-3.511-2.858c1.258-1.548,129.873-156.205,461.379-265.616l1.42,4.302
						C2178.539,1253.66,2050.767,1407.291,2049.512,1408.831z"/>
				</g>
			</g>
			<g>
				<g>
					<path style="fill:#68A1BF;" d="M2218.01,1216.679c-56.101-26.233-73.426-55.339-74.135-56.564l3.917-2.272
						c0.168,0.289,17.47,29.171,72.139,54.734L2218.01,1216.679z"/>
				</g>
			</g>
			<g>
				<g>
					<path style="fill:#68A1BF;" d="M2239.861,1261.1c-19.007-18.042-27.399-49.822-24.268-91.905
						c2.344-31.515,10.375-58.113,10.456-58.378l4.33,1.32c-0.316,1.037-31.104,104.195,12.602,145.68L2239.861,1261.1z"/>
				</g>
			</g>
			<g>
				<g>
					<path style="fill:#68A1BF;" d="M2325.441,1226.825c-6.575-2.791-10.276-4.78-10.444-4.872l2.176-3.97
						c0.776,0.426,78.752,42.224,166.091,12.744l1.447,4.289C2414.334,1258.771,2349.94,1237.226,2325.441,1226.825z"/>
				</g>
			</g>
			<g>
				<g>
					<path style="fill:#68A1BF;" d="M2399.226,1313.836c-26.945-16.322-39.51-37.003-45.305-51.477
						c-6.308-15.755-6.2-27.538-6.194-28.033l4.53,0.068c-0.006,0.453-0.019,45.685,49.317,75.569L2399.226,1313.836z"/>
				</g>
			</g>
		</g>
	</g>
	<g>
		<path style="fill:#ACC9C5;" d="M2089.853,613.246c8.58-16.705,16.44-18.948,22.987-15.585c6.547,3.363,9.303,11.058,0.723,27.763
			c-15.63,30.43-35.039,39.048-35.039,39.048S2073.996,644.12,2089.853,613.246z"/>
	</g>
	<g>
		<path style="fill:#ACC9C5;" d="M2371.931,728.596c19.678-3.376,26.604,1.872,27.927,9.584c1.323,7.713-3.457,14.969-23.135,18.346
			c-35.846,6.151-55.567-4.842-55.567-4.842S2335.563,734.837,2371.931,728.596z"/>
	</g>
	<g>
		<path style="fill:#ACC9C5;" d="M2313.091,697.807c10.602-15.5,18.681-16.742,24.756-12.586c6.075,4.156,7.847,12.135-2.756,27.635
			c-19.313,28.236-39.649,34.358-39.649,34.358S2293.496,726.455,2313.091,697.807z"/>
	</g>
	<g>
		<ellipse style="fill:#B8D5DC;" cx="1408.816" cy="1469.873" rx="952.127" ry="99.834"/>
	</g>
	<g>
		<g>
			<path style="fill:#FFB27D;" d="M2132.108,1032.545c-5.134-17.689-11.391-28.221-11.391-28.221s-38.728,0.223-40.604,3.652
				c-4.327,7.906-9.351,25.43-13.525,33.419c-1.81,3.464-7.097,15.53-3.91,17.791c2.77,1.965,11.506-5.626,15.231-9.74
				c3.198,25.588,19.284,61.476,16.465,7.362c0.029-0.001,0.059-0.004,0.089-0.005c0.789,5.445,5.181,35.739,12.008,31.823
				c6.025-3.456,3.777-25.277,2.575-34.248c0.082-0.021,0.163-0.041,0.245-0.062c2.01,9.012,7.426,30.637,12.093,25.493
				c5.858-6.457,3.966-30.435,3.966-30.435s3.091,30.579,10.761,23.963c5.231-4.513-1.121-28.927-2.925-37.52
				C2132.925,1034.568,2132.555,1033.493,2132.108,1032.545z"/>
		</g>
		<g>
			<g>
				<g>
					<path style="fill:#6DA49A;" d="M1825.047,873.26c-32.774,6.23-97.556,18.999-145.984-15.107
						c-27.341-19.255-49.138-46.14-50.046-46.806l35.805-51.261l-17.903,25.63l17.851-25.668
						c18.644,13.548,49.492,54.868,92.711,44.234c19.622-4.834,42.457-7.821,66.094-42.919l62.37,21.916
						C1866.336,822.649,1872.054,866.252,1825.047,873.26z"/>
				</g>
			</g>
			<g>
				<path style="fill:#FFB27D;" d="M1713.742,818.136c0,0-20.361-30.328-41.057-39.668c-20.695-9.34-33.818-1.592-33.818-1.592
					l-22.208-8.868c0,0-3.184,84.25,54.536,69.406C1675.751,836.242,1713.742,818.136,1713.742,818.136z"/>
			</g>
			<g>
				<path style="fill:#060423;" d="M1619.966,724.091l21.214,122.12c1.388,7.992,9.1,13.262,17.051,11.652l56.839-11.513
					c7.643-1.548,12.666-8.898,11.331-16.582l-20.906-120.348c-1.359-7.82-8.787-13.067-16.611-11.734l-57.147,9.741
					C1623.877,708.766,1618.601,716.236,1619.966,724.091z"/>
			</g>
			<g>
				<path style="fill:#100B47;" d="M1628.851,720.293c0.058-2.097,1.806-3.751,3.903-3.692c2.098,0.058,3.751,1.806,3.692,3.904
					s-1.806,3.751-3.904,3.692C1630.446,724.138,1628.792,722.391,1628.851,720.293z"/>
			</g>
			<g>
				<g>
					<path style="fill:#FFB27D;" d="M1606.881,770.875c0,0-7.478-16.404,7.544-23.125c19.139-8.563,51.193-0.88,39.141,4.712
						c-10.686,4.958-27.551,8.364-27.551,8.364s43.001-8.063,41.622,1.438s-38.448,15.932-38.448,15.932s42.604-3.901,38.395,4.653
						c-4.209,8.554-37.831,14.603-37.831,14.603s41.432-6.056,36.311,3.765c-5.121,9.821-27.181,8.61-36.643,10.232
						c-8.942,1.533-12.826-3.735-13.686-12.467c0,0-5.91-8.195-5.032-14.041c0.337-2.242-2.041-4.003-2.495-5.534
						C1607.337,776.477,1606.881,770.875,1606.881,770.875z"/>
				</g>
			</g>
			<g>
				<path style="fill:#331832;" d="M2045.409,1006.789c-0.226,8.834-53.646,12.343-119.717,10.282
					c-66.071-2.061-118.868-11.198-118.642-20.032s53.39-14.021,119.461-11.96C1992.582,987.14,2045.635,997.955,2045.409,1006.789z
					"/>
			</g>
			<g>
				<path style="fill:#6DA49A;" d="M2029.236,756.682c0,0-11.683-46.305-97.884-46.775
					c-124.31-0.677-112.799,113.544-124.302,287.131c0,0,75.367-31.464,238.359,9.75
					C2045.409,1006.789,2056.229,827.436,2029.236,756.682z"/>
			</g>
			<g>
				<path style="fill:#6DA49A;" d="M2061.054,750.042l-56.301,31.15c0,0-125.959,27.787-158.684,22.396
					c-32.725-5.392-39.019-18.763-39.019-18.763s34.855-63.314,94.097-72.942c5.566-0.912,11.339-1.581,17.325-1.971
					c10.048-0.647,20.111-0.513,29.946,0.596C2023.502,718.969,2061.054,750.042,2061.054,750.042z"/>
			</g>
			<g>
				<path style="fill:#FFB27D;" d="M1943.203,699.31l-6.507-21l-1.893-6.114l-11.136-35.948l-1.466,35.758l-0.876,21.463
					l-0.278,6.794c-0.188,4.612-3,5.581-6.421,9.589c-1.386,1.624-10.256,11.469-0.189,15.917
					c12.54,5.542,35.984-2.849,44.897-13.839C1959.264,711.914,1945.306,706.096,1943.203,699.31z"/>
			</g>
			<g>
				<g>
					<path style="fill:#FFB27D;" d="M2077.685,1022.03c-5.183-57.058-17.072-138.635-44.286-203.241
						c-6.306-14.97-8.932-20.591-13.85-28.765c-3.958-6.577,3.129-21.034,14.308-27.927c10.49-6.468,26.825-5.409,29.41-2.207
						c4.395,5.446,9.084,15.88,16.382,32.449c25.358,57.568,40.551,131.932,46.705,227.808L2077.685,1022.03z"/>
				</g>
			</g>
			<g>
				<path style="fill:#5C305D;" d="M1895.009,622.75c0,0-2.271,8.701,0,19.611c2.271,10.91,13.367-15.907,13.367-15.907
					L1895.009,622.75z"/>
			</g>
			<g>
				
					<ellipse transform="matrix(0.1302 -0.9915 0.9915 0.1302 1030.6079 2474.0842)" style="fill:#FFB27D;" cx="1925.364" cy="649.665" rx="38.521" ry="31.946"/>
			</g>
			<g>
				<g>
					<path style="fill:#080435;" d="M1923.684,648.052c-0.166-0.105-0.283-0.284-0.3-0.494c-0.029-0.356,0.234-0.668,0.59-0.699
						c0.21-0.017,5.034-0.88,7.465,4.249c0.153,0.323,0.029,0.709-0.291,0.869c-0.32,0.159-0.643-0.013-0.869-0.291
						c-2.256-2.784-6.023-3.549-6.197-3.535C1923.936,648.161,1923.798,648.124,1923.684,648.052z"/>
				</g>
			</g>
			<g>
				<path style="fill:#080435;" d="M1926.491,656.359c-0.407,1.491-1.613,2.46-2.695,2.165c-1.082-0.295-1.629-1.743-1.222-3.234
					c0.407-1.491,1.613-2.46,2.695-2.165S1926.898,654.868,1926.491,656.359z"/>
			</g>
			<g>
				<g>
					<path style="fill:#080435;" d="M1899.726,646.129c-0.15-0.026-0.282-0.14-0.35-0.323c-0.115-0.31-0.003-0.701,0.251-0.876
						c0.15-0.103,3.474-2.879,6.603,0.75c0.197,0.229,0.207,0.629,0.013,0.906c-0.194,0.277-0.476,0.255-0.715,0.097
						c-2.387-1.582-5.359-0.714-5.483-0.63C1899.94,646.124,1899.829,646.147,1899.726,646.129z"/>
				</g>
			</g>
			<g>
				<path style="fill:#080435;" d="M1905.631,652.766c0.192,1.533-0.555,2.889-1.667,3.028c-1.113,0.139-2.17-0.991-2.362-2.524
					c-0.192-1.533,0.555-2.889,1.667-3.028C1904.382,650.102,1905.439,651.232,1905.631,652.766z"/>
			</g>
			<g>
				<path style="fill:#5C305D;" d="M1978.319,643.819c0,0-10.677,23.045-25.821,24.735c0,0,12.245-17.562-13.564-28.265
					C1938.934,640.289,1962.63,636.561,1978.319,643.819z"/>
			</g>
			<g>
				<path style="fill:#FFB27D;" d="M1956.97,656.536c-3.239,2.061-7.357,1.385-9.198-1.509c-1.841-2.894-0.709-6.911,2.53-8.971
					c3.239-2.061,7.357-1.385,9.199,1.509C1961.342,650.459,1960.209,654.476,1956.97,656.536z"/>
			</g>
			<g>
				<path style="fill:#5C305D;" d="M1938.934,640.289c0,0,2.067,19.339-1.869,22.995c-3.936,3.656-29.926,5.229-42.056,0.542l0,0
					c-0.202,12.42,8.552,23.385,20.802,25.443c4.052,0.681,8.245,0.685,12.409-0.042l0,0c8.491-1.484,16.746-4.996,20.247-12.873
					c1.065-2.397-2.034-17.141-2.034-17.141s-1.165-8.653,3.869-13.156C1950.302,646.055,1944.49,640.832,1938.934,640.289z"/>
			</g>
			<g>
				<path style="fill:#331832;" d="M1938.934,640.289c0,0,2.134-13.523-8.467-14.487c-10.601-0.964-22.693-2.747-26.851,0
					c-4.158,2.747-9.127,13.53-9.127,13.53s-5.816-20.276,4.842-28.949c10.657-8.674,44.629-20.087,66.313-4.984
					c21.684,15.103,12.676,38.42,12.676,38.42S1962.832,639.098,1938.934,640.289z"/>
			</g>
			<g>
				<path style="fill:#331832;" d="M1953.636,605.398c0,0,15.983-13.2,12.369-22.961c-3.614-9.761-20.532-6.671-27.071-5.144
					c-6.539,1.527-7.645,13.202-2.394,20.736C1941.791,605.564,1953.636,605.398,1953.636,605.398z"/>
			</g>
			<g>
				<path style="fill:#331832;" d="M1929.025,1432.455c-7.668-0.419-14.787,3.555-18.551,10.249c-1.77,3.147-4.347,6.006-8.1,7.571
					c-11.538,4.81-44.969,9.151-32.477,20.114c7.168,6.29,40.949,2.226,50.486,2.225c9.538,0,18.493,4.156,25.58-2.227
					c4.245-3.824,3.868-15.927,2.642-26.16c-0.884-7.382-7.544-12.851-14.919-11.906c-1.117,0.143-2.246,0.215-3.356,0.186
					C1929.886,1432.496,1929.45,1432.479,1929.025,1432.455z"/>
			</g>
			<g>
				<path style="fill:#331832;" d="M2046.845,1428.41c0,0-0.427,17.052-11.965,21.862c-11.538,4.81-44.969,9.151-32.477,20.114
					c7.168,6.291,40.949,2.226,50.486,2.225c9.538,0,18.493,4.156,25.58-2.227c7.797-7.023-0.001-41.974-0.001-41.974
					s-8.23,4.287-15.632,4.095C2052.17,1432.228,2046.845,1428.41,2046.845,1428.41z"/>
			</g>
			<g>
				<path style="fill:#68A1BF;" d="M1842.816,999.477c-5.215,0.556-9.347,4.629-9.977,9.836c-1.255,10.38-1.46,32.307,4.76,77.804
					c9.138,66.84,43.689,310.751,49.429,343.26c2.053,11.629,4.403,18.786,21.258,21.238l22.386-0.44
					c18.224,2.652,25.244-16.913,25.373-29.428l-14.655-375.73l58.255-44.446c0,0-43.6-5.573-92.889-5.534
					C1878.915,996.059,1854.633,998.218,1842.816,999.477z"/>
			</g>
			<g>
				<path style="fill:#68A1BF;" d="M1897.632,1011.945l128.402,412.47c5.375,17.265,20.918,29.096,38.625,29.398l7.718,0.132
					c18.222,0.312,32.152-16.538,28.829-34.872l-70.24-387.569c-1.02-4.607-3.631-24.969-8.074-26.25
					C1998.809,998.307,1895.267,994.886,1897.632,1011.945z"/>
			</g>
			<g>
				<path style="fill:#020202;" d="M1955.019,1196.303l-27.614-83.946c-6.21-18.877-18.982-34.631-35.964-44.36l1.075-1.874
					c17.445,9.995,30.564,26.175,36.941,45.559l27.614,83.946L1955.019,1196.303z"/>
			</g>
			<g>
				<path style="fill:#EF8062;" d="M1986.775,720.399c0,0,13.399-12.377-2.714-16.743c-6.37-1.726-15.866-17.456-24.727-16.099
					c-8.861,1.357-14.085,51.245-49.641,66.674c0,0-8.754,7.627,5.496,7.287S1986.775,720.399,1986.775,720.399z"/>
			</g>
			<g>
				<path style="fill:#EF8062;" d="M1909.693,754.231c0,0-17.793-17.501-14.687-33.832c3.106-16.331-5.941-30.301-10.352-22.92
					c-4.411,7.381-9.504,2.793-10.517,12.043c-1.014,9.249,12.73,54.711,25.195,54.711S1909.693,754.231,1909.693,754.231z"/>
			</g>
			<g>
				<path style="fill:#EF8062;" d="M1913.718,757.673c0,0,11.502,5.171,7.238,17.416c-4.264,12.245,1.698,17.19,1.698,17.19
					s-13.939,0.679-15.622-12.44C1905.349,766.721,1913.718,757.673,1913.718,757.673z"/>
			</g>
			<g>
				<path style="fill:#EF8062;" d="M1907.187,757.673c0,0-14.604,4.976-15.233,14.476c-0.629,9.5,7.74,11.762,10.68,6.107
					c2.94-5.655,9.047-16.727,9.047-16.727L1907.187,757.673z"/>
			</g>
			<g>
				<path style="fill:#5C305D;" d="M1948.467,676.352c0,0-0.103,13.297-9.533,20.766c-9.43,7.469-3.192,13.974-11.491,24.575
					c-8.299,10.601,1.579,10.842-13.118,18.552c-14.697,7.71-25.78,0.723-22.889-11.083c2.891-11.806-9.878-8.674-3.855-23.611
					s10.408-5.782,5.324-21.684c-5.083-15.901,2.104-20.042,2.104-20.042s8.123,0.556,14.683,1.731
					c6.561,1.174,12.457-0.889,17.038,0.579C1931.311,667.604,1948.467,676.352,1948.467,676.352z"/>
			</g>
			<g>
				<path style="fill:#FFFFFF;" d="M1901.411,670.801c0,0,9.958,2.695,20.839,1.641c0,0-1.597,10.076-12.607,8.068
					C1903.241,679.343,1901.411,670.801,1901.411,670.801z"/>
			</g>
			<g>
				<path style="fill:#331832;" d="M2126.354,999.555c0,0-33.559,3.598-50.945,0c0,0-2.257,8.936,1.375,13.017
					c0,0,40.207,3.043,49.57,0C2126.354,1012.572,2133.276,1005.867,2126.354,999.555z"/>
			</g>
			<g>
				<path style="fill:#5C305D;" d="M2104.593,1019.976h0.532c6.627,0,12.05-5.422,12.05-12.05v-2.372
					c0-6.627-5.422-12.05-12.05-12.05h-0.532c-6.627,0-12.05,5.422-12.05,12.05v2.372
					C2092.543,1014.553,2097.966,1019.976,2104.593,1019.976z"/>
			</g>
			<g>
				<path style="fill:#6DA49A;" d="M2061.054,750.042c0,0,28.447,16.833,56.121,127.391s6.877,112.565,6.877,112.565
					s-37.331,0.718-49.337-3.564c-12.006-4.282-18.43-103.357-42.371-143.648C2008.403,802.495,1999.837,740.8,2061.054,750.042z"/>
			</g>
			<g>
				<circle style="fill:#5C305D;" cx="1902.57" cy="829.205" r="4.239"/>
			</g>
			<g>
				<path style="fill:#5C305D;" d="M1906.808,880.845c0-2.341-1.898-4.238-4.238-4.238s-4.239,1.898-4.239,4.238
					c0,2.341,1.898,4.238,4.239,4.238S1906.808,883.186,1906.808,880.845z"/>
			</g>
			<g>
				<path style="fill:#5C305D;" d="M1906.808,942.055c0-2.341-1.898-4.239-4.238-4.239s-4.239,1.898-4.239,4.239
					c0,2.341,1.898,4.238,4.239,4.238S1906.808,944.396,1906.808,942.055z"/>
			</g>
			<g>
				<g>
					<path style="fill:#5C305D;" d="M2046.505,882.549l2.099-0.511c-8.139-34.562-22.135-66.806-22.281-67.134l-1.971,0.876
						C2024.489,816.089,2038.412,848.169,2046.505,882.549z"/>
				</g>
			</g>
			<g>
				<g>
					<path style="fill:#5C305D;" d="M1815.084,876.673c2.363-38.467,21.478-87.882,21.67-88.375l-2.007-0.785
						c-0.201,0.493-19.434,50.219-21.816,89.014L1815.084,876.673z"/>
				</g>
			</g>
		</g>
	</g>
	<g>
		<g>
			<g>
				<path style="fill:#EF8062;" d="M1805.384,413.928c0-100.259-89.125-169.379-188.417-169.379
					c-143.795,0-193.178,81.276-193.178,181.535s113.952,171.265,213.244,171.265S1805.384,514.187,1805.384,413.928z"/>
			</g>
			<g>
				<path style="fill:#EF8062;" d="M1836.809,574.851c0,0-62.851-9.798-67.34-72.895l-49.383,36.448
					C1720.086,538.404,1743.655,596.383,1836.809,574.851z"/>
			</g>
		</g>
		<g>
			<path style="fill:#331832;" d="M1639.884,618.91c-49.737,0-103.816-18.056-144.663-48.301
				c-45.099-33.393-69.936-77.544-69.936-124.318c0-54.854,14.475-98.351,43.024-129.284c32.83-35.57,83.804-53.606,151.508-53.606
				c49.747,0,96.742,16.84,132.326,47.42c37.045,31.833,57.446,75.627,57.446,123.314c0,40.21-10.903,78.098-31.533,109.613
				c14.887,42.152,61.344,49.897,61.813,49.971l6.91,1.083l-6.814,1.576c-28.367,6.556-68.24,9.594-97.854-12.847
				C1713.256,606.68,1677.931,618.91,1639.884,618.91z M1619.817,266.111c-66.916,0-117.221,17.742-149.516,52.734
				c-28.073,30.417-42.306,73.296-42.306,127.446c0,45.894,24.447,89.271,68.839,122.14c40.396,29.912,93.873,47.769,143.05,47.769
				c37.786,0,72.833-12.257,101.353-35.446l0.837-0.681l0.851,0.663c26.888,20.963,63.026,19.78,90.537,14.272
				c-13.534-3.717-46.214-16.105-58.186-51.007l-0.216-0.63l0.367-0.556c20.578-31.182,31.454-68.763,31.454-108.681
				c0-46.885-20.067-89.949-56.503-121.259C1715.284,282.719,1668.917,266.111,1619.817,266.111z"/>
		</g>
		<g>
			<path style="fill:#FFFFFF;" d="M1696.195,441.387h-141.301c-3.11,0-7.895-3.241-8.308-6.323c-0.847-6.323,5.189-8.13,8.299-8.13
				l141.309,3.144c3.11,0,5.655,2.545,5.655,5.655l0,0C1701.849,438.842,1699.305,441.387,1696.195,441.387z"/>
		</g>
		<g>
			<path style="fill:#FFFFFF;" d="M1678.536,414.838h-106.654c-2.348,0-5.959-2.604-6.271-5.08c-0.639-5.08,3.917-6.532,6.264-6.532
				l106.661,2.526c2.348,0,4.268,2.044,4.268,4.543l0,0C1682.804,412.793,1680.884,414.838,1678.536,414.838z"/>
		</g>
	</g>
	<g>
		<g>
			<g>
				<path style="fill:#CCD39C;" d="M1291.104,617.097c0-76.603,68.096-129.415,143.961-129.415
					c109.867,0,147.598,62.099,147.598,138.703c0,76.603-87.066,130.856-162.93,130.856S1291.104,693.7,1291.104,617.097z"/>
			</g>
			<g>
				<path style="fill:#CCD39C;" d="M1267.093,740.051c0,0,48.021-7.486,51.452-55.696l37.731,27.848
					C1356.276,712.203,1338.268,756.503,1267.093,740.051z"/>
			</g>
		</g>
		<g>
			<path style="fill:#331832;" d="M1417.555,773.715c-29.071,0-56.061-9.345-78.108-27.033
				c-22.628,17.147-53.093,14.826-74.765,9.816l-5.207-1.203l5.28-0.828c0.359-0.056,35.854-5.974,47.229-38.18
				c-15.763-24.08-24.094-53.028-24.094-83.751c0-36.436,15.588-69.897,43.892-94.219c27.188-23.364,63.095-36.231,101.104-36.231
				c51.729,0,90.677,13.781,115.76,40.958c21.814,23.634,32.874,56.868,32.874,98.78c0,35.738-18.977,69.472-53.434,94.986
				C1496.876,759.919,1455.556,773.715,1417.555,773.715z M1339.476,744.041l0.64,0.52c21.791,17.718,48.569,27.083,77.439,27.083
				c37.573,0,78.434-13.644,109.298-36.498c33.918-25.115,52.597-58.257,52.597-93.323c0-41.374-10.875-74.136-32.325-97.375
				c-24.676-26.736-63.112-40.292-114.239-40.292c-37.514,0-72.942,12.689-99.755,35.731
				c-27.839,23.923-43.171,56.826-43.171,92.648c0,30.499,8.31,59.214,24.033,83.039l0.28,0.425l-0.165,0.482
				c-9.148,26.667-34.117,36.132-44.457,38.972c21.019,4.209,48.629,5.113,69.175-10.905L1339.476,744.041z"/>
		</g>
	</g>
	<g>
		<g>
			<g>
				<path style="fill:#ACC9C5;" d="M621.254,669.814c-8.214,14.99-15.42,16.839-21.295,13.62
					c-5.875-3.219-8.195-10.288,0.018-25.278c14.962-27.307,32.832-34.676,32.832-34.676S636.434,642.109,621.254,669.814z"/>
			</g>
			<g>
				<g>
					<g>
						<path style="fill:#ACC9C5;" d="M819.481,1016.196l-2.912,1.413c-0.217-0.447-22.399-45.488-74.438-99.78
							c-48.018-50.093-132.007-118.536-259.446-160.115l1.003-3.076c128.142,41.809,212.595,110.661,260.878,161.059
							C796.916,970.337,819.261,1015.743,819.481,1016.196z"/>
					</g>
				</g>
				<g>
					<g>
						<path style="fill:#ACC9C5;" d="M623.583,819.69l-3.234-0.099c3.631-117.43-90.771-200.956-91.725-201.786l2.123-2.441
							C531.712,616.204,627.262,700.699,623.583,819.69z"/>
					</g>
				</g>
				<g>
					<g>
						<path style="fill:#ACC9C5;" d="M554.836,799.627c-28.207,16.858-57.963,15.477-58.305,15.458l0.176-3.229
							c0.38,0.02,38.489,1.748,68.578-23.628l2.086,2.473C563.3,794.133,559.083,797.089,554.836,799.627z"/>
					</g>
				</g>
				<g>
					<g>
						<path style="fill:#ACC9C5;" d="M471.576,743.339c22.613,4.472,28.286,11.13,26.986,17.702
							c-1.3,6.572-9.079,10.57-31.693,6.099c-41.193-8.146-58.749-23.983-58.749-23.983S429.783,735.075,471.576,743.339z"/>
					</g>
				</g>
				<g>
					<g>
						<path style="fill:#ACC9C5;" d="M498.613,801.657c22.909-2.554,30.325,2.083,31.067,8.742
							c0.743,6.658-5.47,12.816-28.379,15.37c-41.732,4.653-63.246-5.154-63.246-5.154S456.273,806.378,498.613,801.657z"/>
					</g>
				</g>
				<g>
					<g>
						<path style="fill:#ACC9C5;" d="M556.8,738.418c11.884,12.286,11.516,19.716,6.701,24.374
							c-4.815,4.658-12.254,4.78-24.138-7.506c-21.649-22.38-23.393-41.63-23.393-41.63S534.836,715.712,556.8,738.418z"/>
					</g>
				</g>
				<g>
					<g>
						<path style="fill:#ACC9C5;" d="M529.878,600.616c16.111,16.486,17.019,25.185,12.228,29.868
							c-4.791,4.683-13.468,3.575-29.579-12.911c-29.349-30.031-34.858-53.024-34.858-53.024S500.101,570.148,529.878,600.616z"/>
					</g>
				</g>
			</g>
		</g>
	</g>
	<g>
		<path style="fill:#ACC9C5;" d="M925.317,1247.269c0,0-222.206-450.948-342.304-386.056s215.851,269.184,276.377,402.507
			L925.317,1247.269z"/>
	</g>
	<g>
		<g>
			<path style="fill:#92BCB5;" d="M811.13,1178.414c0,0-311.058-393.927-437.84-300.687s279.543,215.146,365.676,332.853
				L811.13,1178.414z"/>
		</g>
		<g>
			<g>
				<path style="fill:#68A1BF;" d="M770.92,1196.763c-58.007-82.372-148.863-151.231-214.867-194.49
					c-71.557-46.898-130.096-74.63-130.679-74.905l1.716-3.641c0.585,0.276,59.38,28.128,131.17,75.179
					c66.297,43.452,157.579,112.648,215.951,195.539L770.92,1196.763z"/>
			</g>
		</g>
	</g>
	<g>
		<g>
			<g>
				<path style="fill:#CCD39C;" d="M843.602,1402.779c-50.579-0.966-109.642-0.066-170.155,1.58
					c-7.01-9.705-10.147-18.238-10.147-18.238c-37.893-39.081-31.301-33.258-116.481-18.132
					c-61.102,10.818-68.268-42.995-94.205-81.953c-0.467-0.712-0.95-1.417-1.433-2.121c-10.008-14.422-22.857-26.542-42.389-32.152
					c-20.72-5.938-41.898-15.028-60.439-26.379c-1.54-0.933-3.063-1.892-4.57-2.875c-36.755-23.782-61.528-56.516-48.179-90.38
					c0.311-0.803,0.647-1.605,1.007-2.4c2.506-5.602,6.068-11.236,10.802-16.854c49.35-58.531,99.372-37.713,157.109-28.696
					c31.923,4.979,77.465-35.641,122.205-54.952c0.639-0.278,1.286-0.549,1.924-0.819c35.518-14.839,70.398-15.626,97.391,31.194
					c0,0.008,0.008,0.008,0.008,0.016c0.549,0.95,1.097,1.892,1.638,2.817c60.325,103.107,90.184,65.992,175.126,85.09
					c15.798,3.562,30.023,7.502,39.417,15.904C989.819,1241.739,931.026,1350.079,843.602,1402.779z"/>
			</g>
		</g>
		<g>
			<g>
				<g>
					<path style="fill:#C2C68E;" d="M850.925,1302.127l3.034-3.922c-1.727-1.339-177.361-134.299-558.133-168.546l-0.445,4.941
						C674.723,1168.72,849.204,1300.797,850.925,1302.127z"/>
				</g>
			</g>
			<g>
				<g>
					<path style="fill:#C2C68E;" d="M623.43,1139.095c53.309-41.93,64.549-77.282,65.001-78.765l-4.744-1.449
						c-0.107,0.35-11.378,35.457-63.326,76.316L623.43,1139.095z"/>
				</g>
			</g>
			<g>
				<g>
					<path style="fill:#C2C68E;" d="M611.172,1191.906c15.785-23.969,16.831-59.951,3.026-104.055
						c-10.337-33.029-25.518-59.4-25.67-59.661l-4.29,2.485c0.595,1.027,59.086,103.392,22.789,158.506L611.172,1191.906z"/>
				</g>
			</g>
			<g>
				<g>
					<path style="fill:#C2C68E;" d="M511.375,1176.634c6.319-4.612,9.771-7.654,9.928-7.794l-3.308-3.693
						c-0.721,0.647-73.49,64.619-173.972,54.898l-0.476,4.934C424.512,1232.813,487.832,1193.819,511.375,1176.634z"/>
				</g>
			</g>
			<g>
				<g>
					<path style="fill:#C2C68E;" d="M454.319,1287.784c24.679-24.109,32.936-49.29,35.517-66.168
						c2.81-18.372-0.236-30.912-0.366-31.438l-4.814,1.199c0.119,0.482,11.381,48.72-33.805,92.861L454.319,1287.784z"/>
				</g>
			</g>
		</g>
	</g>
	<g>
		<path style="fill:#ACC9C5;" d="M365.625,1037.276c-15.765-6.605-18.356-13.579-15.767-19.758
			c2.589-6.179,9.377-9.224,25.142-2.618c28.719,12.033,37.911,29.036,37.911,29.036S394.762,1049.484,365.625,1037.276z"/>
	</g>
	<g>
		<g>
			<path style="fill:#EF8062;" d="M1138.193,1432.836l-419.618,36.033c-28.175,2.419-52.203-23.357-52.268-56.072l-1.73-871.055
				c-0.065-32.55,32.258-46.537,38.975-46.295c108.562,3.918,434.06,20.226,434.06,20.226c25.658,1.846,45.652,26.48,45.652,56.248
				v804.713C1183.263,1406.142,1163.606,1430.654,1138.193,1432.836z"/>
		</g>
		<g>
			<polygon style="fill:#EF8062;" points="754.369,1471.925 711.07,1468.848 703.551,495.447 758.923,485.254 			"/>
		</g>
		<g>
			<path style="fill:#EF8062;" d="M1188.078,1436.894l-419.618,36.187c-28.175,2.43-52.203-23.457-52.268-56.313l-1.73-874.785
				c-0.065-32.69,23.63-58.646,51.687-56.619l421.349,30.438c25.658,1.854,45.652,26.593,45.652,56.489v808.16
				C1233.148,1410.086,1213.491,1434.703,1188.078,1436.894z"/>
		</g>
		<g>
			<path style="fill:#331832;" d="M764.824,1474.251c-11.143,0-21.936-4.32-30.735-12.376
				c-11.983-10.973-18.876-27.412-18.911-45.104l-1.73-874.784c-0.035-17.598,6.734-34.02,18.571-45.054
				c9.66-9.006,21.802-13.476,34.201-12.576l-0.146,2.02c-11.826-0.852-23.43,3.421-32.674,12.038
				c-11.427,10.652-17.961,26.532-17.927,43.569l1.73,874.785c0.034,17.126,6.687,33.023,18.254,43.614
				c9.351,8.564,21.037,12.717,32.915,11.691l0.174,2.018C767.303,1474.197,766.061,1474.251,764.824,1474.251z"/>
		</g>
		<g>
			<path style="fill:#B8D5DC;" d="M1210.988,599.321v709.171c0,38.116-17.61,47.605-40.375,49.529l-375.937,31.747
				c-25.235,2.137-48.374,0.142-46.825-49.407l-0.344-168.424l-0.344-174.774l-0.061-28.061l-0.294-144.516l-0.081-40.891
				l-0.415-208.272l-0.01-2.694c0-47.919,21.175-64.01,46.309-62.238l377.203,27.959c35.169,5.965,40.871,11.919,41.154,56.82
				c0,0.253,0.01,0.516,0,0.78C1210.988,597.114,1210.988,598.207,1210.988,599.321z"/>
		</g>
		<g>
			<path style="fill:#331832;" d="M999.912,1434.09c-12.492,0-22.278-10.008-22.278-22.784c0-10.576,9.815-23.158,24.428-25.033
				c5.972-0.767,10.973,0.583,14.868,4.01c4.942,4.348,7.893,12.255,7.893,21.148
				C1024.822,1423.502,1013.182,1434.09,999.912,1434.09z M1005.192,1388.091c-0.927,0-1.884,0.064-2.873,0.191
				c-13.555,1.739-22.66,13.309-22.66,23.024c0,11.641,8.896,20.759,20.253,20.759c10.803,0,22.885-8.825,22.885-20.634
				c0-8.321-2.694-15.658-7.205-19.627C1012.786,1389.335,1009.297,1388.091,1005.192,1388.091z"/>
		</g>
		<g style="opacity:0.3;">
			<path style="fill:#DAEBE8;" d="M1210.968,595.271c0,0.253,0.01,0.516,0,0.78c-117.265,47.483-338.925,137.204-464.241,187.645
				l-0.415-208.272l-0.01-2.694c0-47.919,21.175-64.01,46.309-62.238l377.203,27.959
				C1204.983,544.415,1210.684,550.37,1210.968,595.271z"/>
		</g>
		<g style="opacity:0.5;">
			<polygon style="fill:#DAEBE8;" points="1210.988,734.277 1210.988,843.958 747.507,1171.936 747.162,997.162 			"/>
		</g>
		<g style="opacity:0.8;">
			<polygon style="fill:#DAEBE8;" points="1210.988,632.648 1210.988,684.404 747.102,969.102 746.808,824.586 			"/>
		</g>
	</g>
	<g>
		<g>
			<path style="fill:#331832;" d="M1012.263,1043.041l-1.678-2.532c0.539-0.36,13.196-9.035,7.619-24.214
				c-2.622-7.14-1.764-15.993,2.484-25.603c3.162-7.152,7.031-12.168,7.194-12.378l2.399,1.863
				c-0.15,0.193-14.936,19.524-9.226,35.07C1027.472,1032.712,1012.416,1042.94,1012.263,1043.041z"/>
		</g>
		<g>
			<path style="fill:#331832;" d="M1158.997,1038.881l-2.712-1.37c0.122-0.242,12.025-24.275-2.731-32.567
				c-16.734-9.405-18.577-31.86-18.647-32.812l3.03-0.225c0.016,0.217,1.808,21.79,17.106,30.388
				c7.233,4.065,10.176,11.766,8.508,22.269C1162.337,1032.215,1159.133,1038.613,1158.997,1038.881z"/>
		</g>
		<g>
			<path style="fill:#5F3563;" d="M1304.652,849.631L1304.652,849.631c3.055,3.317,2.84,8.53-0.476,11.584l-19.772,18.21
				c-3.317,3.055-8.53,2.84-11.584-0.476v0c-3.055-3.317-2.84-8.529,0.476-11.584l19.772-18.21
				C1296.384,846.1,1301.597,846.315,1304.652,849.631z"/>
		</g>
		<g>
			<path style="fill:#EF8062;" d="M1276.565,822.555c0,0-0.598,20.146,1.696,26.331c1.073,2.892,7.989,11.424,14.92,15.911
				c7.434,4.813,17.087,4.394,24.099-1.016c4.722-3.643,9.724-8.445,13.062-14.233l17.668-25.398
				c1.293-1.859,1.225-4.426-0.33-6.073c-2.136-2.262-5.696-1.889-7.375,0.524l-11.037,15.866c-0.598-0.582-1.236-1.172-1.924-1.769
				l13.216-18.999c1.296-1.863,1.228-4.435-0.331-6.086c-2.141-2.267-5.708-1.894-7.39,0.525l-13.107,18.841
				c-0.741-0.49-1.488-0.973-2.243-1.44l15.908-22.868c1.494-2.148,0.959-5.128-1.188-6.621l0,0
				c-2.148-1.494-5.127-0.959-6.621,1.188l-16.545,23.783c-0.869-0.385-1.713-0.731-2.527-1.032l11.651-16.748
				c1.296-1.863,1.227-4.435-0.332-6.086c-2.141-2.266-5.707-1.893-7.39,0.525l-20.372,29.285l-0.339-5.261
				c-0.203-3.157-2.953-5.573-6.109-5.37l-1.69,0.109C1278.778,816.65,1276.362,819.399,1276.565,822.555z"/>
		</g>
		<g>
			<g>
				<path style="fill:#331832;" d="M1210.248,949.286c-5.763,0-11.527-0.626-17.294-1.879
					c-60.192-13.086-90.063-90.299-101.308-119.366c-0.261-0.675-0.546-1.41-0.815-2.103c-3.326-5.345-5.026-11.765-4.471-18.521
					c1.18-14.353,11.887-25.805,26.038-27.851c3.918-0.564,23.935-2.252,33.401,20.207c0.715,1.695,1.509,3.748,2.514,6.346
					c4.255,11,12.176,31.474,23.858,50.114c11.453,18.275,23.418,29.569,33.691,31.802c12.454,2.708,27.238-8.611,37.448-18.583
					c12.004-11.722,31.237-11.495,42.961,0.509c11.722,12.004,11.494,31.238-0.509,42.961
					C1260.998,937.104,1235.667,949.285,1210.248,949.286z M1146.907,812.506c0,0.004-0.001,0.007-0.001,0.011
					C1146.906,812.514,1146.907,812.51,1146.907,812.506z M1146.911,812.457c0,0.007-0.001,0.014-0.002,0.021
					C1146.91,812.471,1146.911,812.465,1146.911,812.457z M1146.916,812.394c-0.001,0.014-0.002,0.028-0.004,0.042
					C1146.914,812.422,1146.915,812.407,1146.916,812.394z"/>
			</g>
		</g>
		<g>
			<path style="fill:#DAEBE8;" d="M1177.441,907.836c-2.681-16.515,15.589-26.574,15.773-26.674l0.481,0.891
				c-0.178,0.096-17.82,9.821-15.254,25.62L1177.441,907.836z"/>
		</g>
		<g>
			<path style="fill:#331832;" d="M1054.735,945.509c0,0-30.799,99.504-21.704,102.699c9.095,3.195,112.283-3.35,114.906-6.199
				c2.623-2.849-21.397-91.24-28.392-95.612C1112.549,942.026,1054.735,945.509,1054.735,945.509z"/>
		</g>
		<g>
			<path style="fill:#5F3563;" d="M938.096,1055.839L938.096,1055.839c-4.491-0.398-7.841-4.398-7.443-8.889l1.569-17.717
				c0.398-4.491,4.398-7.841,8.889-7.443l0,0c4.491,0.398,7.841,4.398,7.443,8.889l-1.569,17.717
				C946.588,1052.887,942.588,1056.237,938.096,1055.839z"/>
		</g>
		<g>
			<path style="fill:#EF8062;" d="M975.839,1058.758c0,0-13.115-15.305-18.974-18.335c-2.74-1.417-13.598-3.074-21.743-1.729
				c-8.737,1.443-15.596,8.249-17.142,16.969c-1.041,5.873-1.51,12.791-0.083,19.318l4.023,30.676
				c0.294,2.246,2.073,4.098,4.331,4.27c3.102,0.236,5.484-2.435,5.102-5.351l-2.513-19.163c0.834,0.028,1.703,0.035,2.614,0.014
				l3.01,22.947c0.295,2.25,2.077,4.107,4.34,4.279c3.109,0.236,5.496-2.44,5.113-5.362l-2.984-22.757
				c0.878-0.136,1.755-0.282,2.628-0.445l3.622,27.621c0.34,2.594,2.741,4.438,5.335,4.098l0,0c2.594-0.34,4.438-2.741,4.098-5.335
				l-3.767-28.725c0.902-0.3,1.759-0.612,2.564-0.938l2.653,20.229c0.295,2.25,2.077,4.107,4.341,4.278
				c3.109,0.236,5.495-2.44,5.113-5.362l-4.639-35.371l3.791,3.663c2.275,2.198,5.935,2.135,8.133-0.139l1.177-1.218
				C978.176,1064.615,978.114,1060.956,975.839,1058.758z"/>
		</g>
		<g>
			<path style="fill:#68A1BF;" d="M994.126,804.024c0,0,10.819-42.88,90.642-43.315c101.768-0.555,95.562,59.659,95.828,163.396
				c0.076,29.475-20.73,54.941-49.658,60.594c-23.462,4.585-56.235,7.766-100.565,5.823c-18.651-0.817-34.249-14.46-37.567-32.831
				C985.631,917.965,977.11,848.626,994.126,804.024z"/>
		</g>
		<g>
			<g>
				<path style="fill:#331832;" d="M955.256,1031.981c8.619-0.165,16.165-5.82,18.825-14.02
					c21.135-65.163,43.797-125.068,67.487-172.292c6.745-13.445-5.239-39.405-14.988-46.676c-9.148-6.823-24.302-7.181-26.947-4.438
					c-4.499,4.665-9.677,13.906-17.762,28.593c-26.354,47.871-48.77,105.213-62.596,184.723
					c-1.822,10.476,5.197,20.419,15.654,22.342c1.843,0.339,3.856,0.658,6.052,0.948
					C946.353,1031.87,951.164,1032.059,955.256,1031.981z"/>
			</g>
		</g>
		<g>
			<path style="fill:#68A1BF;" d="M1175.552,1028.858c4.829,0.515,8.656,4.287,9.239,9.108c1.163,9.612,1.352,29.917-4.408,72.049
				c-8.462,61.895-18.663,124.7-23.978,154.804c-1.901,10.768-14.212,19.936-29.82,22.207l-8.388,1.22
				c-16.876,2.455-31.757-5.542-31.876-17.132l-2.051-199.16l-53.945-41.158c0,0,40.375-5.161,86.018-5.124
				C1142.124,1025.693,1164.609,1027.691,1175.552,1028.858z"/>
		</g>
		<g>
			<path style="fill:#68A1BF;" d="M1124.791,1040.403c0,0-57.902,161.115-82.667,213.72c-19.308,41.014-83.416,22.751-73.572-14.804
				c11.647-44.436,32.768-180.805,32.768-180.805c0.945-4.266,3.363-23.121,7.477-24.308
				C1031.099,1027.775,1126.981,1024.606,1124.791,1040.403z"/>
		</g>
		<g>
			<g>
				<path style="fill:#366F90;" d="M1093.831,1437.668L1093.831,1437.668c-3.977,0-7.231-3.254-7.231-7.231v-11.187
					c0-3.977,3.254-7.231,7.231-7.231l0,0c3.977,0,7.231,3.254,7.231,7.231v11.187
					C1101.061,1434.414,1097.808,1437.668,1093.831,1437.668z"/>
			</g>
			<g>
				<path style="fill:#331832;" d="M1095.721,1429.806c7.101-0.388,13.693,3.292,17.179,9.491c1.639,2.914,4.025,5.562,7.5,7.011
					c10.684,4.454,41.643,8.474,30.075,18.626c-6.638,5.825-37.92,2.061-46.751,2.061c-8.833,0-17.125,3.849-23.688-2.063
					c-3.931-3.541-3.581-14.748-2.447-24.225c0.818-6.836,6.986-11.9,13.815-11.025c1.034,0.133,2.08,0.199,3.108,0.173
					C1094.923,1429.844,1095.326,1429.827,1095.721,1429.806z"/>
			</g>
			<g>
				<path style="fill:#331832;" d="M1085.813,1221.765c0,0-15.403,73.52,34.076,74.222c49.479,0.702,43.865-74.222,43.865-74.222
					S1136.87,1231.973,1085.813,1221.765z"/>
			</g>
			<g>
				<path style="fill:#68A1BF;" d="M1114.925,1420.707c0,0-16.067,10.006-30.655,2.569c-14.588-7.437-6.402-34.723-4.219-76.198
					c2.183-41.475-0.81-84.718,6.144-88.199s26.781,3.976,42.062-4.755c15.28-8.732,31.574-26.436,40.747-18.555
					c4.366,3.751-13.504,65.681-24.74,101.868C1134.809,1367.892,1130.803,1405.106,1114.925,1420.707z"/>
			</g>
			<g>
				<path style="fill:#366F90;" d="M1101.545,1275.952c0-2.295,1.86-4.156,4.156-4.156c2.295,0,4.155,1.86,4.155,4.156
					c0,2.295-1.86,4.155-4.155,4.155C1103.405,1280.107,1101.545,1278.247,1101.545,1275.952z"/>
			</g>
			<g>
				<path style="fill:#366F90;" d="M1093.831,1416.174c0-2.295,1.86-4.155,4.156-4.155c2.295,0,4.155,1.86,4.155,4.155
					c0,2.295-1.86,4.156-4.155,4.156C1095.691,1420.33,1093.831,1418.469,1093.831,1416.174z"/>
			</g>
		</g>
		<g>
			<g>
				<path style="fill:#366F90;" d="M855.893,1358.721L855.893,1358.721c-2.9-2.721-3.047-7.32-0.326-10.221l7.654-8.159
					c2.721-2.901,7.32-3.047,10.221-0.326l0,0c2.901,2.721,3.047,7.32,0.327,10.221l-7.654,8.159
					C863.393,1361.295,858.794,1361.442,855.893,1358.721z"/>
			</g>
			<g>
				<path style="fill:#331832;" d="M862.651,1354.28c5.444,4.575,7.734,11.77,6.035,18.675c-0.798,3.246-0.87,6.811,0.674,10.245
					c4.745,10.558,24.573,34.671,9.191,34.16c-8.826-0.293-29.066-24.441-35.506-30.483c-6.442-6.043-15.123-8.909-15.865-17.711
					c-0.445-5.272,7.479-13.207,14.79-19.342c5.274-4.426,13.237-3.899,17.619,1.412c0.664,0.804,1.38,1.568,2.148,2.252
					C862.043,1353.762,862.348,1354.026,862.651,1354.28z"/>
			</g>
			<g>
				<path style="fill:#331832;" d="M978.074,1195.004c0,0-20.891,65.829-6.241,78.216c52.859,44.691,79.371-39.623,79.371-39.623
					S1008.326,1237.38,978.074,1195.004z"/>
			</g>
			<g>
				<path style="fill:#68A1BF;" d="M882.882,1360.783c0,0-18.564-3.695-24.115-19.1c-5.551-15.405,19.088-29.704,49.056-58.459
					c29.968-28.755,57.372-62.34,64.825-60.122c7.453,2.218,16.812,21.223,33.93,25.31c17.118,4.086,41.114,2.322,42.412,14.346
					c0.618,5.723-54.786,38.663-87.739,57.368C933.518,1335.868,905.136,1360.269,882.882,1360.783z"/>
			</g>
			<g>
				<path style="fill:#366F90;" d="M972.162,1246.057c1.57-1.674,4.2-1.758,5.874-0.188c1.674,1.57,1.758,4.2,0.188,5.874
					c-1.57,1.674-4.2,1.758-5.874,0.188C970.675,1250.36,970.591,1247.731,972.162,1246.057z"/>
			</g>
			<g>
				<path style="fill:#366F90;" d="M870.599,1343.045c1.57-1.674,4.2-1.758,5.874-0.188c1.674,1.57,1.758,4.2,0.188,5.874
					c-1.57,1.674-4.2,1.758-5.874,0.188C869.112,1347.349,869.029,1344.719,870.599,1343.045z"/>
			</g>
		</g>
		<g>
			<path style="fill:#5F3563;" d="M992.001,1075.736c0-24.952,19.009-45.179,42.457-45.179s50.501,20.227,50.501,45.179
				c0,35.337-38.076,52.784-61.524,52.784C999.986,1128.52,992.001,1100.688,992.001,1075.736z"/>
		</g>
		<g>
			<path style="fill:#7FC1DD;" d="M984.873,1069.808c0-24.458,19.827-44.285,44.285-44.285s52.675,19.827,52.675,44.285
				c0,34.637-39.716,51.74-64.173,51.74C993.201,1121.548,984.873,1094.266,984.873,1069.808z"/>
		</g>
		<g>
			<path style="fill:#331832;" d="M1020.961,1111.974c-19.476,0-26.416-21.377-26.416-41.381c0-19.572,15.923-35.495,35.495-35.495
				c9.58,0,20.184,3.871,28.365,10.356c8.869,7.029,13.754,15.957,13.754,25.138
				C1072.16,1097.237,1041.887,1111.974,1020.961,1111.974z M1030.04,1036.155c-18.989,0-34.438,15.449-34.438,34.438
				c0,19.494,6.662,40.325,25.359,40.325c20.494,0,50.142-14.36,50.142-40.325
				C1071.103,1051.516,1048.639,1036.155,1030.04,1036.155z"/>
		</g>
		<g>
			<path style="fill:#331832;" d="M1062.679,762.041c8.035,9.897,23.428,11.002,35.302,7.631c6.012-1.707,6.248-8.077,4.374-8.496
				c-4.595-1.026-5.227-5.027-5.396-9.181l-0.222-5.444l-0.026-0.677l-0.287-7.098l-0.508-12.241l-1.315-32.205l-10.04,32.374
				l-1.706,5.509l-5.86,18.922C1075.107,757.243,1065.844,760.707,1062.679,762.041z"/>
		</g>
		<g>
			<path style="fill:#331832;" d="M1081.646,737.056c0,0,4.83,7.998,15.091,9.496l-0.026-0.677l-0.287-7.098
				C1090.877,738.243,1081.646,737.056,1081.646,737.056z"/>
		</g>
		<g>
			<path style="fill:#68A1BF;" d="M1131.472,701.107c-2.948-22.453-20.294-37.115-39.054-36.229
				c-38.02,1.796-31.327,22.629-28.379,45.082c2.948,22.453,20.433,38.674,39.054,36.229
				C1121.714,743.745,1134.42,723.561,1131.472,701.107z"/>
		</g>
		<g>
			<g>
				<path style="fill:#080435;" d="M1099.544,703.816c0.177-0.112,0.301-0.302,0.319-0.526c0.031-0.379-0.249-0.711-0.628-0.744
					c-0.223-0.018-5.359-0.937-7.946,4.523c-0.163,0.344-0.031,0.755,0.31,0.925c0.341,0.17,0.685-0.013,0.925-0.31
					c2.401-2.964,6.411-3.777,6.596-3.763C1099.275,703.933,1099.422,703.893,1099.544,703.816z"/>
			</g>
		</g>
		<g>
			<path style="fill:#080435;" d="M1096.556,712.659c0.433,1.587,1.717,2.619,2.869,2.305c1.151-0.314,1.734-1.855,1.301-3.442
				c-0.433-1.587-1.717-2.619-2.869-2.305C1096.705,709.531,1096.123,711.072,1096.556,712.659z"/>
		</g>
		<g>
			<g>
				<path style="fill:#080435;" d="M1125.046,701.769c0.159-0.028,0.301-0.148,0.373-0.344c0.122-0.329,0.003-0.746-0.268-0.932
					c-0.159-0.109-3.697-3.065-7.028,0.798c-0.21,0.244-0.22,0.669-0.014,0.964c0.206,0.294,0.507,0.271,0.761,0.103
					c2.542-1.685,5.704-0.76,5.837-0.67C1124.818,701.764,1124.936,701.789,1125.046,701.769z"/>
			</g>
		</g>
		<g>
			<path style="fill:#080435;" d="M1118.76,708.834c-0.204,1.632,0.59,3.076,1.775,3.224c1.184,0.148,2.31-1.055,2.514-2.687
				s-0.59-3.076-1.775-3.224C1120.09,705.999,1118.965,707.202,1118.76,708.834z"/>
		</g>
		<g>
			<ellipse style="fill:#331832;" cx="1071.382" cy="708.061" rx="12.386" ry="18.955"/>
		</g>
		<g>
			<ellipse style="fill:#EF8062;" cx="1066.784" cy="708.061" rx="12.387" ry="18.955"/>
		</g>
		<g>
			<path style="fill:#5F3563;" d="M1085.675,1148.139l-1.246-0.411c1.222-3.705,30.048-90.776,40.232-93.46l0.334,1.269
				C1117.11,1057.613,1093.938,1123.085,1085.675,1148.139z"/>
		</g>
		<g>
			<path style="fill:#331832;" d="M1094.866,921.73c-4.857,0-9.113-0.267-12.298-0.875c-8.263-1.578-12.85-3.878-15.337-7.693
				c-3.14-4.816-3.112-12.119,0.1-26.046c5.287-22.933-2.168-77.634-2.244-78.184l-0.001-0.007c-0.147-1.195,0.73-2.265,2.606-3.181
				c12.096-5.903,73.94-6.304,79.725-0.518c3.965,3.965,6.02,42.307,6.555,53.963c1.09,23.746,1.288,50.401-0.494,53.026
				C1150.693,916.318,1116.721,921.73,1094.866,921.73z M1066.091,808.797c0.103,0.749,7.546,55.476,2.226,78.546
				c-3.142,13.626-3.209,20.71-0.239,25.266c2.322,3.561,6.712,5.73,14.679,7.251c18.258,3.484,67.079-4.084,69.882-8.215
				c1.408-2.075,1.552-25.586,0.32-52.411c-1.375-29.947-3.832-50.866-6.259-53.294c-2.263-2.263-17.597-3.854-36.385-3.851
				c-20.012,0.034-36.568,1.825-42.18,4.563C1067.143,807.138,1065.984,807.903,1066.091,808.797z"/>
		</g>
		<g>
			<path style="fill:#FFFFFF;" d="M1099.866,726.264c0,0,15.631,4.786,21.847-2.991c0,0-1.938,10.969-10.924,11.766
				C1101.804,735.837,1099.866,726.264,1099.866,726.264z"/>
		</g>
		<g>
			<path style="fill:#7FC1DD;" d="M1143.343,885.477c0,0,2.025-70.886-7.595-74.177c-9.62-3.291-44.557-5.823-46.582,0
				c-2.025,5.823,22.785,13.164,24.81,29.367C1116.001,856.869,1143.178,904.712,1143.343,885.477z"/>
		</g>
		<g>
			<path style="fill:#7FC1DD;" d="M1151.715,1062.691c0,0-21.537,130.126-11.411,136.202c10.127,6.076,22.278-22.785,26.329-56.202
				c4.051-33.418,16.202-92.563,8.607-93.623C1167.646,1048.007,1152.625,1057.062,1151.715,1062.691z"/>
		</g>
		<g>
			<path style="fill:#7FC1DD;" d="M1141.148,1299.989c-0.197-1.378,0.338-33.615,6.076-41.111
				c5.738-7.496,15.527-9.522,14.177-4.458C1160.051,1259.483,1143.511,1316.529,1141.148,1299.989z"/>
		</g>
		<g>
			<path style="fill:#7FC1DD;" d="M1119.123,680.389c0,0-8.721-12.853-20.352-12.633c-11.631,0.219-7.411,6.145-2.828,9.217
				C1100.526,680.045,1124.552,689.731,1119.123,680.389z"/>
		</g>
		<g>
			<path style="fill:#DAEBE8;" d="M1035.619,856.878c-6.068-35.934-51.834-35.848-52.292-35.857l-0.011-1.013
				c0.459,0.003,47.088-0.087,53.301,36.7L1035.619,856.878z"/>
		</g>
		<g>
			<path style="fill:#DAEBE8;" d="M997.718,948.333c-8.831-16.998-19.498-27.105-31.704-30.04
				c-14.446-3.475-26.002,4.608-26.116,4.689l-0.588-0.825c0.119-0.083,12.051-8.429,26.941-4.849
				c12.504,3.007,23.393,13.287,32.365,30.557L997.718,948.333z"/>
		</g>
		<g>
			<path style="fill:#DAEBE8;" d="M980.846,995.893c-10.732-15.364-23.668-23.488-37.45-23.366
				c-10.411,0.059-17.729,4.769-17.801,4.817l-0.555-0.846c0.298-0.196,30.136-19.123,56.637,18.815L980.846,995.893z"/>
		</g>
		<g>
			<path style="fill:#DAEBE8;" d="M1272.485,925.024c-36.184-13.223-34.825-50.492-34.807-50.867l1.012,0.049
				c-0.017,0.367-1.329,36.904,34.143,49.868L1272.485,925.024z"/>
		</g>
		<g>
			<path style="fill:#DAEBE8;" d="M1225.993,948.121c-30.098-15.816-10.513-60.375-10.312-60.823l0.924,0.415
				c-0.197,0.439-19.397,44.138,9.859,59.511L1225.993,948.121z"/>
		</g>
		<g>
			<path style="fill:#DAEBE8;" d="M1017.603,897.437c-7.065-17.442-16.748-28.63-28.78-33.255
				c-14.333-5.51-27.015,0.502-27.141,0.563l-0.442-0.911c0.129-0.063,13.206-6.265,27.947-0.597
				c12.303,4.729,22.18,16.108,29.355,33.82L1017.603,897.437z"/>
		</g>
	</g>
	<g>
		<path style="fill:#EF8062;" d="M826.554,1387.079c0.779-0.066,76.869-6.493,76.869-6.493l1.946,48.998h-64.81L826.554,1387.079z"
			/>
	</g>
	<g>
		<g>
			<g style="opacity:0.6;">
				<g>
					<path style="fill:#ACC9C5;" d="M1624.732,905.699c-16.679-64.522-85.534-94.177-149.434-77.658
						c-92.539,23.922-110.798,84.442-94.119,148.964s101.825,91.26,165.725,74.742
						C1610.804,1035.228,1641.411,970.22,1624.732,905.699z"/>
				</g>
				<g>
					<path style="fill:#ACC9C5;" d="M1671.727,1004.033c0,0-42.078,4.15-55.464-35.709l-25.717,31.671
						C1590.547,999.995,1615.36,1033.387,1671.727,1004.033z"/>
				</g>
			</g>
			<g>
				<path style="fill:#331832;" d="M1513.433,1069.907c-21.297,0-42.994-3.992-62.241-11.778
					c-34.578-13.988-57.907-38.269-65.689-68.37c-9.125-35.301-7.046-65.702,6.181-90.358c15.21-28.353,45.014-48.44,88.585-59.703
					c32.017-8.276,65.059-5.255,93.048,8.503c29.135,14.324,49.55,39.113,57.484,69.802c6.689,25.877,5.976,52.073-2.058,75.787
					c16.61,24.677,47.776,21.909,48.093,21.875l4.637-0.457l-4.133,2.153c-17.164,8.938-42.319,17.522-65.111,8.012
					c-14.72,19.699-35.418,33.446-59.903,39.776C1539.988,1068.337,1526.789,1069.907,1513.433,1069.907z M1480.495,840.57
					l0.225,0.872c-43.064,11.132-72.486,30.919-87.448,58.811c-13.006,24.245-15.033,54.207-6.024,89.055
					c7.635,29.535,30.584,53.383,64.62,67.152c30.975,12.529,68.36,15.125,100.007,6.943c24.317-6.285,44.832-20.004,59.329-39.672
					l0.426-0.577l0.658,0.285c20.791,9.019,43.851,2.244,60.638-5.877c-9.328-0.14-32.419-2.675-45.931-23.146l-0.244-0.369
					l0.144-0.419c8.054-23.491,8.802-49.486,2.161-75.175c-7.799-30.173-27.878-54.548-56.534-68.637
					c-27.602-13.569-60.204-16.542-91.802-8.376L1480.495,840.57z"/>
			</g>
		</g>
		<g>
			<path style="fill:#DAEBE8;" d="M1456.655,962.728c-1.362-5.27,1.806-10.647,7.076-12.009c5.27-1.362,10.647,1.806,12.009,7.076
				c1.362,5.27-1.806,10.647-7.076,12.009C1463.394,971.166,1458.017,967.998,1456.655,962.728z"/>
		</g>
		<g>
			<path style="fill:#DAEBE8;" d="M1495.172,952.771c-1.362-5.27,1.806-10.647,7.076-12.009c5.27-1.362,10.647,1.806,12.009,7.076
				c1.362,5.27-1.806,10.647-7.076,12.009C1501.911,961.209,1496.535,958.041,1495.172,952.771z"/>
		</g>
		<g>
			<path style="fill:#DAEBE8;" d="M1534.731,942.545c-1.363-5.27,1.806-10.647,7.076-12.009c5.27-1.362,10.647,1.806,12.009,7.076
				c1.362,5.27-1.806,10.647-7.076,12.009C1541.47,950.983,1536.093,947.815,1534.731,942.545z"/>
		</g>
	</g>
	<g>
		<path style="fill:#FFFFFF;" d="M1508.901,649.261H1367.6c-3.11,0-7.895-3.241-8.308-6.323c-0.847-6.323,5.189-8.13,8.299-8.13
			l141.309,3.144c3.11,0,5.655,2.544,5.655,5.654l0,0C1514.555,646.717,1512.011,649.261,1508.901,649.261z"/>
	</g>
	<g>
		<path style="fill:#FFFFFF;" d="M1491.242,622.712h-106.654c-2.347,0-5.959-2.604-6.271-5.08c-0.639-5.08,3.917-6.532,6.264-6.532
			l106.661,2.526c2.347,0,4.268,2.044,4.268,4.543l0,0C1495.51,620.668,1493.59,622.712,1491.242,622.712z"/>
	</g>
	<g>
		<g>
			<path style="fill:#B8D5DC;" d="M1520.813,1520.34c0,0-24.374-24.849-15.987-39.001c8.387-14.152,22.539,30.401,22.539,30.401
				s-7.338-52.683,7.862-53.598c15.201-0.915,0,53.598,0,53.598s5.635-12.711,11.139-13.497c5.504-0.786,3.931,10.778-5.897,22.097
				H1520.813z"/>
		</g>
		<g>
			<path style="fill:#444092;" d="M1522.558,1520.964c-0.069-0.071-7.044-7.218-12.751-16.246c-7.788-12.32-9.642-22.1-5.513-29.069
				c1.542-2.6,3.381-3.802,5.502-3.557c7.143,0.816,14.965,19.399,19.015,30.47c-1.34-13.829-2.868-41.169,4.703-50.415
				c1.649-2.013,3.659-3.105,5.976-3.244c2.265-0.132,4.114,0.674,5.513,2.405c6.826,8.45,0.656,38.305-2.734,52.274
				c2.528-4.098,6.116-8.664,9.783-9.187c1.729-0.243,3.116,0.4,3.89,1.824c2.213,4.06-0.841,14.413-9.78,24.707l-1.346-1.17
				c8.788-10.121,11.199-19.677,9.56-22.685c-0.416-0.764-1.072-1.051-2.073-0.91c-4.719,0.674-10.222,10.903-11.945,14.787
				l-1.674-0.601c0.033-0.12,3.365-12.129,5.601-25.276c2.923-17.193,2.692-28.48-0.67-32.642c-1.031-1.275-2.349-1.851-4.018-1.745
				c-1.827,0.11-3.366,0.959-4.704,2.594c-9.589,11.709-3.447,56.732-3.384,57.186l-1.733,0.393
				c-3.18-10.011-13.007-36.173-20.182-36.992c-1.373-0.163-2.599,0.726-3.765,2.694c-9.054,15.279,17.731,42.881,18.003,43.157
				L1522.558,1520.964z"/>
		</g>
	</g>
	<g>
		<g>
			<path style="fill:#B8D5DC;" d="M1701.412,1428.409c0,0-24.374-24.849-15.987-39.001c8.386-14.152,22.539,30.401,22.539,30.401
				s-7.338-52.683,7.862-53.598c15.201-0.915,0,53.598,0,53.598s5.635-12.711,11.138-13.497s3.931,10.778-5.897,22.097H1701.412z"/>
		</g>
		<g>
			<path style="fill:#444092;" d="M1703.157,1429.033c-0.069-0.071-7.044-7.218-12.751-16.246c-7.788-12.32-9.643-22.1-5.513-29.069
				c1.542-2.601,3.389-3.797,5.502-3.557c7.143,0.816,14.965,19.399,19.015,30.471c-1.34-13.83-2.868-41.169,4.702-50.414
				c1.649-2.013,3.66-3.106,5.977-3.245c2.263-0.132,4.114,0.674,5.513,2.405c6.825,8.449,0.657,38.302-2.734,52.273
				c2.528-4.098,6.116-8.663,9.782-9.188c1.732-0.246,3.115,0.401,3.891,1.824c2.212,4.061-0.842,14.413-9.78,24.707l-1.346-1.17
				c8.787-10.12,11.198-19.677,9.56-22.684c-0.417-0.764-1.074-1.054-2.074-0.911c-4.715,0.674-10.22,10.903-11.944,14.787
				l-1.674-0.601c0.033-0.12,3.365-12.129,5.601-25.276c2.924-17.193,2.692-28.48-0.67-32.642c-1.031-1.275-2.349-1.853-4.018-1.745
				c-1.827,0.109-3.366,0.959-4.705,2.594c-9.586,11.707-3.446,56.732-3.383,57.186l-1.733,0.393
				c-3.18-10.012-13.007-36.174-20.182-36.992c-1.371-0.153-2.598,0.724-3.765,2.693c-9.058,15.286,17.731,42.881,18.003,43.157
				L1703.157,1429.033z"/>
		</g>
	</g>
	<g>
		<g>
			<path style="fill:#B8D5DC;" d="M575.644,1472.948c0,0-24.373-24.849-15.987-39.001c8.387-14.152,22.539,30.401,22.539,30.401
				s-7.338-52.683,7.862-53.598c15.201-0.915,0,53.598,0,53.598s5.635-12.711,11.139-13.497c5.504-0.786,3.931,10.778-5.897,22.097
				H575.644z"/>
		</g>
		<g>
			<path style="fill:#444092;" d="M577.39,1473.572c-0.07-0.071-7.044-7.218-12.751-16.246c-7.788-12.32-9.643-22.101-5.513-29.069
				c1.541-2.6,3.386-3.804,5.502-3.557c7.142,0.815,14.965,19.399,19.014,30.47c-1.34-13.83-2.868-41.169,4.703-50.414
				c1.649-2.014,3.66-3.106,5.977-3.245c2.254-0.138,4.113,0.673,5.512,2.405c6.826,8.45,0.656,38.305-2.734,52.274
				c2.529-4.098,6.117-8.664,9.783-9.187c1.733-0.246,3.116,0.401,3.891,1.824c2.212,4.06-0.841,14.412-9.78,24.707l-1.347-1.17
				c8.788-10.121,11.199-19.677,9.561-22.685c-0.416-0.764-1.073-1.05-2.073-0.91c-4.716,0.673-10.221,10.902-11.944,14.786
				l-1.674-0.601c0.033-0.12,3.365-12.129,5.6-25.276c2.924-17.193,2.692-28.48-0.67-32.642c-1.03-1.276-2.347-1.854-4.018-1.745
				c-1.826,0.11-3.365,0.959-4.704,2.594c-9.589,11.709-3.447,56.732-3.384,57.186l-1.733,0.394
				c-3.181-10.011-13.007-36.173-20.183-36.992c-1.362-0.156-2.598,0.726-3.765,2.694c-9.054,15.278,17.731,42.881,18.002,43.157
				L577.39,1473.572z"/>
		</g>
	</g>
	<g>
		<g>
			<path style="fill:#B8D5DC;" d="M1312.659,1422.359c0,0-24.374-24.849-15.987-39.001s22.539,30.401,22.539,30.401
				s-7.338-52.683,7.862-53.598c15.201-0.915,0,53.598,0,53.598s5.635-12.711,11.138-13.497c5.504-0.786,3.931,10.778-5.897,22.097
				H1312.659z"/>
		</g>
		<g>
			<path style="fill:#444092;" d="M1314.404,1422.983c-0.07-0.071-7.044-7.218-12.751-16.246
				c-7.788-12.32-9.642-22.101-5.513-29.069c1.541-2.6,3.388-3.806,5.502-3.557c7.142,0.815,14.965,19.399,19.015,30.47
				c-1.34-13.83-2.868-41.169,4.702-50.414c1.649-2.014,3.66-3.106,5.977-3.245c2.256-0.137,4.114,0.673,5.512,2.405
				c6.826,8.45,0.656,38.305-2.734,52.274c2.529-4.098,6.118-8.664,9.783-9.188c1.733-0.246,3.116,0.399,3.891,1.824
				c2.212,4.06-0.841,14.413-9.78,24.707l-1.347-1.17c8.788-10.121,11.199-19.677,9.56-22.685c-0.416-0.764-1.072-1.052-2.072-0.91
				c-4.716,0.673-10.222,10.903-11.945,14.786l-1.674-0.601c0.033-0.12,3.365-12.129,5.6-25.276
				c2.924-17.193,2.692-28.481-0.67-32.642c-1.031-1.275-2.344-1.855-4.018-1.745c-1.826,0.11-3.365,0.959-4.704,2.594
				c-9.589,11.709-3.447,56.732-3.384,57.186l-1.733,0.394c-3.18-10.011-13.007-36.173-20.182-36.992
				c-1.365-0.151-2.598,0.726-3.765,2.694c-9.054,15.278,17.731,42.881,18.002,43.157L1314.404,1422.983z"/>
		</g>
	</g>
</g>
</svg>
